solid OpenSCAD_Model
  facet normal 0.471395 0.881922 -0
    outer loop
      vertex 1.8056 2.70228 0
      vertex 1.24372 3.00261 3.175
      vertex 1.8056 2.70228 3.175
    endloop
  endfacet
  facet normal 0.471395 0.881922 0
    outer loop
      vertex 1.24372 3.00261 3.175
      vertex 1.8056 2.70228 0
      vertex 1.24372 3.00261 0
    endloop
  endfacet
  facet normal 0.995184 -0.0980206 0
    outer loop
      vertex 3.18755 -0.634043 3.175
      vertex 3.25 0 0
      vertex 3.25 0 3.175
    endloop
  endfacet
  facet normal 0.995184 -0.0980206 0
    outer loop
      vertex 3.25 0 0
      vertex 3.18755 -0.634043 3.175
      vertex 3.18755 -0.634043 0
    endloop
  endfacet
  facet normal -0.29028 -0.956942 0
    outer loop
      vertex -1.24372 -3.00261 0
      vertex -0.634043 -3.18755 3.175
      vertex -1.24372 -3.00261 3.175
    endloop
  endfacet
  facet normal -0.29028 -0.956942 -0
    outer loop
      vertex -0.634043 -3.18755 3.175
      vertex -1.24372 -3.00261 0
      vertex -0.634043 -3.18755 0
    endloop
  endfacet
  facet normal -0.29028 0.956942 0
    outer loop
      vertex -0.634043 3.18755 0
      vertex -1.24372 3.00261 3.175
      vertex -0.634043 3.18755 3.175
    endloop
  endfacet
  facet normal -0.29028 0.956942 0
    outer loop
      vertex -1.24372 3.00261 3.175
      vertex -0.634043 3.18755 0
      vertex -1.24372 3.00261 0
    endloop
  endfacet
  facet normal -0.881922 0.471395 0
    outer loop
      vertex -3.00261 1.24372 0
      vertex -2.70228 1.8056 3.175
      vertex -2.70228 1.8056 0
    endloop
  endfacet
  facet normal -0.881922 0.471395 0
    outer loop
      vertex -2.70228 1.8056 3.175
      vertex -3.00261 1.24372 0
      vertex -3.00261 1.24372 3.175
    endloop
  endfacet
  facet normal 0.773014 -0.634389 0
    outer loop
      vertex 2.2981 -2.2981 3.175
      vertex 2.70228 -1.8056 0
      vertex 2.70228 -1.8056 3.175
    endloop
  endfacet
  facet normal 0.773014 -0.634389 0
    outer loop
      vertex 2.70228 -1.8056 0
      vertex 2.2981 -2.2981 3.175
      vertex 2.2981 -2.2981 0
    endloop
  endfacet
  facet normal 0.881922 0.471395 0
    outer loop
      vertex 3.00261 1.24372 3.175
      vertex 2.70228 1.8056 0
      vertex 2.70228 1.8056 3.175
    endloop
  endfacet
  facet normal 0.881922 0.471395 0
    outer loop
      vertex 2.70228 1.8056 0
      vertex 3.00261 1.24372 3.175
      vertex 3.00261 1.24372 0
    endloop
  endfacet
  facet normal 0.773014 0.634389 0
    outer loop
      vertex 2.70228 1.8056 3.175
      vertex 2.2981 2.2981 0
      vertex 2.2981 2.2981 3.175
    endloop
  endfacet
  facet normal 0.773014 0.634389 0
    outer loop
      vertex 2.2981 2.2981 0
      vertex 2.70228 1.8056 3.175
      vertex 2.70228 1.8056 0
    endloop
  endfacet
  facet normal 0.634389 0.773014 -0
    outer loop
      vertex 2.2981 2.2981 0
      vertex 1.8056 2.70228 3.175
      vertex 2.2981 2.2981 3.175
    endloop
  endfacet
  facet normal 0.634389 0.773014 0
    outer loop
      vertex 1.8056 2.70228 3.175
      vertex 2.2981 2.2981 0
      vertex 1.8056 2.70228 0
    endloop
  endfacet
  facet normal 0.0980206 0.995184 -0
    outer loop
      vertex 0.634043 3.18755 0
      vertex 0 3.25 3.175
      vertex 0.634043 3.18755 3.175
    endloop
  endfacet
  facet normal 0.0980206 0.995184 0
    outer loop
      vertex 0 3.25 3.175
      vertex 0.634043 3.18755 0
      vertex 0 3.25 0
    endloop
  endfacet
  facet normal -0.995184 0.0980206 0
    outer loop
      vertex -3.25 0 0
      vertex -3.18755 0.634043 3.175
      vertex -3.18755 0.634043 0
    endloop
  endfacet
  facet normal -0.995184 0.0980206 0
    outer loop
      vertex -3.18755 0.634043 3.175
      vertex -3.25 0 0
      vertex -3.25 0 3.175
    endloop
  endfacet
  facet normal -0.773014 0.634389 0
    outer loop
      vertex -2.70228 1.8056 0
      vertex -2.2981 2.2981 3.175
      vertex -2.2981 2.2981 0
    endloop
  endfacet
  facet normal -0.773014 0.634389 0
    outer loop
      vertex -2.2981 2.2981 3.175
      vertex -2.70228 1.8056 0
      vertex -2.70228 1.8056 3.175
    endloop
  endfacet
  facet normal -0.471395 0.881922 0
    outer loop
      vertex -1.24372 3.00261 0
      vertex -1.8056 2.70228 3.175
      vertex -1.24372 3.00261 3.175
    endloop
  endfacet
  facet normal -0.471395 0.881922 0
    outer loop
      vertex -1.8056 2.70228 3.175
      vertex -1.24372 3.00261 0
      vertex -1.8056 2.70228 0
    endloop
  endfacet
  facet normal -0.0980206 0.995184 0
    outer loop
      vertex 0 3.25 0
      vertex -0.634043 3.18755 3.175
      vertex 0 3.25 3.175
    endloop
  endfacet
  facet normal -0.0980206 0.995184 0
    outer loop
      vertex -0.634043 3.18755 3.175
      vertex 0 3.25 0
      vertex -0.634043 3.18755 0
    endloop
  endfacet
  facet normal -0.634389 0.773014 0
    outer loop
      vertex -1.8056 2.70228 0
      vertex -2.2981 2.2981 3.175
      vertex -1.8056 2.70228 3.175
    endloop
  endfacet
  facet normal -0.634389 0.773014 0
    outer loop
      vertex -2.2981 2.2981 3.175
      vertex -1.8056 2.70228 0
      vertex -2.2981 2.2981 0
    endloop
  endfacet
  facet normal 0.995184 0.0980206 0
    outer loop
      vertex 3.25 0 3.175
      vertex 3.18755 0.634043 0
      vertex 3.18755 0.634043 3.175
    endloop
  endfacet
  facet normal 0.995184 0.0980206 0
    outer loop
      vertex 3.18755 0.634043 0
      vertex 3.25 0 3.175
      vertex 3.25 0 0
    endloop
  endfacet
  facet normal 0.881922 -0.471395 0
    outer loop
      vertex 2.70228 -1.8056 3.175
      vertex 3.00261 -1.24372 0
      vertex 3.00261 -1.24372 3.175
    endloop
  endfacet
  facet normal 0.881922 -0.471395 0
    outer loop
      vertex 3.00261 -1.24372 0
      vertex 2.70228 -1.8056 3.175
      vertex 2.70228 -1.8056 0
    endloop
  endfacet
  facet normal 0.956942 -0.29028 0
    outer loop
      vertex 3.00261 -1.24372 3.175
      vertex 3.18755 -0.634043 0
      vertex 3.18755 -0.634043 3.175
    endloop
  endfacet
  facet normal 0.956942 -0.29028 0
    outer loop
      vertex 3.18755 -0.634043 0
      vertex 3.00261 -1.24372 3.175
      vertex 3.00261 -1.24372 0
    endloop
  endfacet
  facet normal 0.471395 -0.881922 0
    outer loop
      vertex 1.24372 -3.00261 0
      vertex 1.8056 -2.70228 3.175
      vertex 1.24372 -3.00261 3.175
    endloop
  endfacet
  facet normal 0.471395 -0.881922 0
    outer loop
      vertex 1.8056 -2.70228 3.175
      vertex 1.24372 -3.00261 0
      vertex 1.8056 -2.70228 0
    endloop
  endfacet
  facet normal 0.634389 -0.773014 0
    outer loop
      vertex 1.8056 -2.70228 0
      vertex 2.2981 -2.2981 3.175
      vertex 1.8056 -2.70228 3.175
    endloop
  endfacet
  facet normal 0.634389 -0.773014 0
    outer loop
      vertex 2.2981 -2.2981 3.175
      vertex 1.8056 -2.70228 0
      vertex 2.2981 -2.2981 0
    endloop
  endfacet
  facet normal -0.0980206 -0.995184 0
    outer loop
      vertex -0.634043 -3.18755 0
      vertex 0 -3.25 3.175
      vertex -0.634043 -3.18755 3.175
    endloop
  endfacet
  facet normal -0.0980206 -0.995184 -0
    outer loop
      vertex 0 -3.25 3.175
      vertex -0.634043 -3.18755 0
      vertex 0 -3.25 0
    endloop
  endfacet
  facet normal -0.634389 -0.773014 0
    outer loop
      vertex -2.2981 -2.2981 0
      vertex -1.8056 -2.70228 3.175
      vertex -2.2981 -2.2981 3.175
    endloop
  endfacet
  facet normal -0.634389 -0.773014 -0
    outer loop
      vertex -1.8056 -2.70228 3.175
      vertex -2.2981 -2.2981 0
      vertex -1.8056 -2.70228 0
    endloop
  endfacet
  facet normal -0.881922 -0.471395 0
    outer loop
      vertex -2.70228 -1.8056 0
      vertex -3.00261 -1.24372 3.175
      vertex -3.00261 -1.24372 0
    endloop
  endfacet
  facet normal -0.881922 -0.471395 0
    outer loop
      vertex -3.00261 -1.24372 3.175
      vertex -2.70228 -1.8056 0
      vertex -2.70228 -1.8056 3.175
    endloop
  endfacet
  facet normal -0.995184 -0.0980206 0
    outer loop
      vertex -3.18755 -0.634043 0
      vertex -3.25 0 3.175
      vertex -3.25 0 0
    endloop
  endfacet
  facet normal -0.995184 -0.0980206 0
    outer loop
      vertex -3.25 0 3.175
      vertex -3.18755 -0.634043 0
      vertex -3.18755 -0.634043 3.175
    endloop
  endfacet
  facet normal 0 0 -1
    outer loop
      vertex 3.18755 -0.634043 0
      vertex 3.18755 0.634043 0
      vertex 3.25 0 0
    endloop
  endfacet
  facet normal 0 0 -1
    outer loop
      vertex 3.00261 -1.24372 0
      vertex 3.18755 0.634043 0
      vertex 3.18755 -0.634043 0
    endloop
  endfacet
  facet normal 0 0 -1
    outer loop
      vertex 3.00261 -1.24372 0
      vertex 3.00261 1.24372 0
      vertex 3.18755 0.634043 0
    endloop
  endfacet
  facet normal 0 0 -1
    outer loop
      vertex 2.70228 -1.8056 0
      vertex 3.00261 1.24372 0
      vertex 3.00261 -1.24372 0
    endloop
  endfacet
  facet normal 0 0 -1
    outer loop
      vertex 2.70228 -1.8056 0
      vertex 2.70228 1.8056 0
      vertex 3.00261 1.24372 0
    endloop
  endfacet
  facet normal 0 0 -1
    outer loop
      vertex 2.2981 -2.2981 0
      vertex 2.70228 1.8056 0
      vertex 2.70228 -1.8056 0
    endloop
  endfacet
  facet normal 0 0 -1
    outer loop
      vertex 2.2981 -2.2981 0
      vertex 2.2981 2.2981 0
      vertex 2.70228 1.8056 0
    endloop
  endfacet
  facet normal 0 0 -1
    outer loop
      vertex 1.8056 -2.70228 0
      vertex 2.2981 2.2981 0
      vertex 2.2981 -2.2981 0
    endloop
  endfacet
  facet normal 0 0 -1
    outer loop
      vertex 1.8056 -2.70228 0
      vertex 1.8056 2.70228 0
      vertex 2.2981 2.2981 0
    endloop
  endfacet
  facet normal 0 0 -1
    outer loop
      vertex 1.24372 -3.00261 0
      vertex 1.8056 2.70228 0
      vertex 1.8056 -2.70228 0
    endloop
  endfacet
  facet normal 0 0 -1
    outer loop
      vertex 1.24372 -3.00261 0
      vertex 1.24372 3.00261 0
      vertex 1.8056 2.70228 0
    endloop
  endfacet
  facet normal 0 0 -1
    outer loop
      vertex 0.634043 -3.18755 0
      vertex 1.24372 3.00261 0
      vertex 1.24372 -3.00261 0
    endloop
  endfacet
  facet normal 0 0 -1
    outer loop
      vertex 0.634043 -3.18755 0
      vertex 0.634043 3.18755 0
      vertex 1.24372 3.00261 0
    endloop
  endfacet
  facet normal 0 0 -1
    outer loop
      vertex 0 -3.25 0
      vertex 0.634043 3.18755 0
      vertex 0.634043 -3.18755 0
    endloop
  endfacet
  facet normal 0 0 -1
    outer loop
      vertex 0 -3.25 0
      vertex 0 3.25 0
      vertex 0.634043 3.18755 0
    endloop
  endfacet
  facet normal 0 0 -1
    outer loop
      vertex -0.634043 -3.18755 0
      vertex 0 3.25 0
      vertex 0 -3.25 0
    endloop
  endfacet
  facet normal 0 0 -1
    outer loop
      vertex -0.634043 -3.18755 0
      vertex -0.634043 3.18755 0
      vertex 0 3.25 0
    endloop
  endfacet
  facet normal 0 0 -1
    outer loop
      vertex -1.24372 -3.00261 0
      vertex -0.634043 3.18755 0
      vertex -0.634043 -3.18755 0
    endloop
  endfacet
  facet normal 0 0 -1
    outer loop
      vertex -1.24372 -3.00261 0
      vertex -1.24372 3.00261 0
      vertex -0.634043 3.18755 0
    endloop
  endfacet
  facet normal 0 0 -1
    outer loop
      vertex -1.8056 -2.70228 0
      vertex -1.24372 3.00261 0
      vertex -1.24372 -3.00261 0
    endloop
  endfacet
  facet normal 0 0 -1
    outer loop
      vertex -1.8056 -2.70228 0
      vertex -1.8056 2.70228 0
      vertex -1.24372 3.00261 0
    endloop
  endfacet
  facet normal 0 0 -1
    outer loop
      vertex -2.2981 -2.2981 0
      vertex -1.8056 2.70228 0
      vertex -1.8056 -2.70228 0
    endloop
  endfacet
  facet normal 0 0 -1
    outer loop
      vertex -2.2981 -2.2981 0
      vertex -2.2981 2.2981 0
      vertex -1.8056 2.70228 0
    endloop
  endfacet
  facet normal 0 0 -1
    outer loop
      vertex -2.70228 -1.8056 0
      vertex -2.2981 2.2981 0
      vertex -2.2981 -2.2981 0
    endloop
  endfacet
  facet normal 0 0 -1
    outer loop
      vertex -2.70228 -1.8056 0
      vertex -2.70228 1.8056 0
      vertex -2.2981 2.2981 0
    endloop
  endfacet
  facet normal 0 0 -1
    outer loop
      vertex -3.00261 -1.24372 0
      vertex -2.70228 1.8056 0
      vertex -2.70228 -1.8056 0
    endloop
  endfacet
  facet normal 0 0 -1
    outer loop
      vertex -3.00261 -1.24372 0
      vertex -3.00261 1.24372 0
      vertex -2.70228 1.8056 0
    endloop
  endfacet
  facet normal 0 0 -1
    outer loop
      vertex -3.18755 -0.634043 0
      vertex -3.00261 1.24372 0
      vertex -3.00261 -1.24372 0
    endloop
  endfacet
  facet normal 0 0 -1
    outer loop
      vertex -3.18755 -0.634043 0
      vertex -3.18755 0.634043 0
      vertex -3.00261 1.24372 0
    endloop
  endfacet
  facet normal 0 -0 -1
    outer loop
      vertex -3.18755 0.634043 0
      vertex -3.18755 -0.634043 0
      vertex -3.25 0 0
    endloop
  endfacet
  facet normal -0.773014 -0.634389 0
    outer loop
      vertex -2.2981 -2.2981 0
      vertex -2.70228 -1.8056 3.175
      vertex -2.70228 -1.8056 0
    endloop
  endfacet
  facet normal -0.773014 -0.634389 0
    outer loop
      vertex -2.70228 -1.8056 3.175
      vertex -2.2981 -2.2981 0
      vertex -2.2981 -2.2981 3.175
    endloop
  endfacet
  facet normal 0.956942 0.29028 0
    outer loop
      vertex 3.18755 0.634043 3.175
      vertex 3.00261 1.24372 0
      vertex 3.00261 1.24372 3.175
    endloop
  endfacet
  facet normal 0.956942 0.29028 0
    outer loop
      vertex 3.00261 1.24372 0
      vertex 3.18755 0.634043 3.175
      vertex 3.18755 0.634043 0
    endloop
  endfacet
  facet normal 0.29028 0.956942 -0
    outer loop
      vertex 1.24372 3.00261 0
      vertex 0.634043 3.18755 3.175
      vertex 1.24372 3.00261 3.175
    endloop
  endfacet
  facet normal 0.29028 0.956942 0
    outer loop
      vertex 0.634043 3.18755 3.175
      vertex 1.24372 3.00261 0
      vertex 0.634043 3.18755 0
    endloop
  endfacet
  facet normal 0 0 1
    outer loop
      vertex 1.1 0 3.175
      vertex 3.25 0 3.175
      vertex 3.18755 0.634043 3.175
    endloop
  endfacet
  facet normal 0 0 1
    outer loop
      vertex 1.01627 0.420951 3.175
      vertex 3.18755 0.634043 3.175
      vertex 3.00261 1.24372 3.175
    endloop
  endfacet
  facet normal 0 0 1
    outer loop
      vertex 3.25 0 3.175
      vertex 1.1 0 3.175
      vertex 3.18755 -0.634043 3.175
    endloop
  endfacet
  facet normal 0 0 1
    outer loop
      vertex 1.01627 0.420951 3.175
      vertex 3.00261 1.24372 3.175
      vertex 2.70228 1.8056 3.175
    endloop
  endfacet
  facet normal -0 0 1
    outer loop
      vertex 1.01627 -0.420951 3.175
      vertex 3.18755 -0.634043 3.175
      vertex 1.1 0 3.175
    endloop
  endfacet
  facet normal 0 0 1
    outer loop
      vertex 0.777817 0.777817 3.175
      vertex 2.70228 1.8056 3.175
      vertex 2.2981 2.2981 3.175
    endloop
  endfacet
  facet normal 0 0 1
    outer loop
      vertex 3.18755 -0.634043 3.175
      vertex 1.01627 -0.420951 3.175
      vertex 3.00261 -1.24372 3.175
    endloop
  endfacet
  facet normal 0 0 1
    outer loop
      vertex 0.777817 0.777817 3.175
      vertex 2.2981 2.2981 3.175
      vertex 1.8056 2.70228 3.175
    endloop
  endfacet
  facet normal 0 0 1
    outer loop
      vertex 3.00261 -1.24372 3.175
      vertex 1.01627 -0.420951 3.175
      vertex 2.70228 -1.8056 3.175
    endloop
  endfacet
  facet normal 0 0 1
    outer loop
      vertex 0.420951 1.01627 3.175
      vertex 1.8056 2.70228 3.175
      vertex 1.24372 3.00261 3.175
    endloop
  endfacet
  facet normal -0 0 1
    outer loop
      vertex 0.777817 -0.777817 3.175
      vertex 2.70228 -1.8056 3.175
      vertex 1.01627 -0.420951 3.175
    endloop
  endfacet
  facet normal 0 0 1
    outer loop
      vertex 2.70228 -1.8056 3.175
      vertex 0.777817 -0.777817 3.175
      vertex 2.2981 -2.2981 3.175
    endloop
  endfacet
  facet normal 0 0 1
    outer loop
      vertex 3.18755 0.634043 3.175
      vertex 1.01627 0.420951 3.175
      vertex 1.1 0 3.175
    endloop
  endfacet
  facet normal 0 0 1
    outer loop
      vertex 2.70228 1.8056 3.175
      vertex 0.777817 0.777817 3.175
      vertex 1.01627 0.420951 3.175
    endloop
  endfacet
  facet normal 0 0 1
    outer loop
      vertex 0.420951 1.01627 3.175
      vertex 1.24372 3.00261 3.175
      vertex 0.634043 3.18755 3.175
    endloop
  endfacet
  facet normal 0 0 1
    outer loop
      vertex 1.8056 2.70228 3.175
      vertex 0.420951 1.01627 3.175
      vertex 0.777817 0.777817 3.175
    endloop
  endfacet
  facet normal 0 0 1
    outer loop
      vertex 0 1.1 3.175
      vertex 0.634043 3.18755 3.175
      vertex 0 3.25 3.175
    endloop
  endfacet
  facet normal 0 0 1
    outer loop
      vertex 0.634043 3.18755 3.175
      vertex 0 1.1 3.175
      vertex 0.420951 1.01627 3.175
    endloop
  endfacet
  facet normal -0 0 1
    outer loop
      vertex -0.634043 3.18755 3.175
      vertex 0 1.1 3.175
      vertex 0 3.25 3.175
    endloop
  endfacet
  facet normal 0 0 1
    outer loop
      vertex 0 1.1 3.175
      vertex -0.634043 3.18755 3.175
      vertex -0.420951 1.01627 3.175
    endloop
  endfacet
  facet normal -0 0 1
    outer loop
      vertex -1.24372 3.00261 3.175
      vertex -0.420951 1.01627 3.175
      vertex -0.634043 3.18755 3.175
    endloop
  endfacet
  facet normal -0 0 1
    outer loop
      vertex -1.8056 2.70228 3.175
      vertex -0.420951 1.01627 3.175
      vertex -1.24372 3.00261 3.175
    endloop
  endfacet
  facet normal 0 0 1
    outer loop
      vertex -0.420951 1.01627 3.175
      vertex -1.8056 2.70228 3.175
      vertex -0.777817 0.777817 3.175
    endloop
  endfacet
  facet normal -0 0 1
    outer loop
      vertex -2.2981 2.2981 3.175
      vertex -0.777817 0.777817 3.175
      vertex -1.8056 2.70228 3.175
    endloop
  endfacet
  facet normal 0 0 1
    outer loop
      vertex 2.2981 -2.2981 3.175
      vertex 0.777817 -0.777817 3.175
      vertex 1.8056 -2.70228 3.175
    endloop
  endfacet
  facet normal -0 0 1
    outer loop
      vertex 0.420951 -1.01627 3.175
      vertex 1.8056 -2.70228 3.175
      vertex 0.777817 -0.777817 3.175
    endloop
  endfacet
  facet normal 0 0 1
    outer loop
      vertex 1.8056 -2.70228 3.175
      vertex 0.420951 -1.01627 3.175
      vertex 1.24372 -3.00261 3.175
    endloop
  endfacet
  facet normal 0 0 1
    outer loop
      vertex 1.24372 -3.00261 3.175
      vertex 0.420951 -1.01627 3.175
      vertex 0.634043 -3.18755 3.175
    endloop
  endfacet
  facet normal -0 0 1
    outer loop
      vertex 0 -1.1 3.175
      vertex 0.634043 -3.18755 3.175
      vertex 0.420951 -1.01627 3.175
    endloop
  endfacet
  facet normal 0 0 1
    outer loop
      vertex 0 -1.1 3.175
      vertex 0 -3.25 3.175
      vertex 0.634043 -3.18755 3.175
    endloop
  endfacet
  facet normal 0 0 1
    outer loop
      vertex -0.634043 -3.18755 3.175
      vertex 0 -1.1 3.175
      vertex -0.420951 -1.01627 3.175
    endloop
  endfacet
  facet normal 0 0 1
    outer loop
      vertex 0 -1.1 3.175
      vertex -0.634043 -3.18755 3.175
      vertex 0 -3.25 3.175
    endloop
  endfacet
  facet normal 0 0 1
    outer loop
      vertex -1.8056 -2.70228 3.175
      vertex -0.420951 -1.01627 3.175
      vertex -0.777817 -0.777817 3.175
    endloop
  endfacet
  facet normal 0 0 1
    outer loop
      vertex -2.70228 -1.8056 3.175
      vertex -0.777817 -0.777817 3.175
      vertex -1.01627 -0.420951 3.175
    endloop
  endfacet
  facet normal 0 0 1
    outer loop
      vertex -3.18755 -0.634043 3.175
      vertex -1.01627 -0.420951 3.175
      vertex -1.1 0 3.175
    endloop
  endfacet
  facet normal 0 0 1
    outer loop
      vertex -0.420951 -1.01627 3.175
      vertex -1.24372 -3.00261 3.175
      vertex -0.634043 -3.18755 3.175
    endloop
  endfacet
  facet normal -0 0 1
    outer loop
      vertex -2.70228 1.8056 3.175
      vertex -0.777817 0.777817 3.175
      vertex -2.2981 2.2981 3.175
    endloop
  endfacet
  facet normal 0 0 1
    outer loop
      vertex -0.777817 0.777817 3.175
      vertex -2.70228 1.8056 3.175
      vertex -1.01627 0.420951 3.175
    endloop
  endfacet
  facet normal 0 0 1
    outer loop
      vertex -0.420951 -1.01627 3.175
      vertex -1.8056 -2.70228 3.175
      vertex -1.24372 -3.00261 3.175
    endloop
  endfacet
  facet normal -0 0 1
    outer loop
      vertex -3.00261 1.24372 3.175
      vertex -1.01627 0.420951 3.175
      vertex -2.70228 1.8056 3.175
    endloop
  endfacet
  facet normal 0 0 1
    outer loop
      vertex -0.777817 -0.777817 3.175
      vertex -2.2981 -2.2981 3.175
      vertex -1.8056 -2.70228 3.175
    endloop
  endfacet
  facet normal -0 0 1
    outer loop
      vertex -3.18755 0.634043 3.175
      vertex -1.01627 0.420951 3.175
      vertex -3.00261 1.24372 3.175
    endloop
  endfacet
  facet normal 0 0 1
    outer loop
      vertex -0.777817 -0.777817 3.175
      vertex -2.70228 -1.8056 3.175
      vertex -2.2981 -2.2981 3.175
    endloop
  endfacet
  facet normal 0 0 1
    outer loop
      vertex -1.01627 0.420951 3.175
      vertex -3.18755 0.634043 3.175
      vertex -1.1 0 3.175
    endloop
  endfacet
  facet normal 0 0 1
    outer loop
      vertex -1.01627 -0.420951 3.175
      vertex -3.00261 -1.24372 3.175
      vertex -2.70228 -1.8056 3.175
    endloop
  endfacet
  facet normal 0 0 1
    outer loop
      vertex -3.25 0 3.175
      vertex -1.1 0 3.175
      vertex -3.18755 0.634043 3.175
    endloop
  endfacet
  facet normal 0 0 1
    outer loop
      vertex -1.01627 -0.420951 3.175
      vertex -3.18755 -0.634043 3.175
      vertex -3.00261 -1.24372 3.175
    endloop
  endfacet
  facet normal 0 0 1
    outer loop
      vertex -1.1 0 3.175
      vertex -3.25 0 3.175
      vertex -3.18755 -0.634043 3.175
    endloop
  endfacet
  facet normal -0.956942 0.29028 0
    outer loop
      vertex -3.18755 0.634043 0
      vertex -3.00261 1.24372 3.175
      vertex -3.00261 1.24372 0
    endloop
  endfacet
  facet normal -0.956942 0.29028 0
    outer loop
      vertex -3.00261 1.24372 3.175
      vertex -3.18755 0.634043 0
      vertex -3.18755 0.634043 3.175
    endloop
  endfacet
  facet normal 0.0980206 -0.995184 0
    outer loop
      vertex 0 -3.25 0
      vertex 0.634043 -3.18755 3.175
      vertex 0 -3.25 3.175
    endloop
  endfacet
  facet normal 0.0980206 -0.995184 0
    outer loop
      vertex 0.634043 -3.18755 3.175
      vertex 0 -3.25 0
      vertex 0.634043 -3.18755 0
    endloop
  endfacet
  facet normal -0.471395 -0.881922 0
    outer loop
      vertex -1.8056 -2.70228 0
      vertex -1.24372 -3.00261 3.175
      vertex -1.8056 -2.70228 3.175
    endloop
  endfacet
  facet normal -0.471395 -0.881922 -0
    outer loop
      vertex -1.24372 -3.00261 3.175
      vertex -1.8056 -2.70228 0
      vertex -1.24372 -3.00261 0
    endloop
  endfacet
  facet normal -0.956942 -0.29028 0
    outer loop
      vertex -3.00261 -1.24372 0
      vertex -3.18755 -0.634043 3.175
      vertex -3.18755 -0.634043 0
    endloop
  endfacet
  facet normal -0.956942 -0.29028 0
    outer loop
      vertex -3.18755 -0.634043 3.175
      vertex -3.00261 -1.24372 0
      vertex -3.00261 -1.24372 3.175
    endloop
  endfacet
  facet normal 0.29028 -0.956942 0
    outer loop
      vertex 0.634043 -3.18755 0
      vertex 1.24372 -3.00261 3.175
      vertex 0.634043 -3.18755 3.175
    endloop
  endfacet
  facet normal 0.29028 -0.956942 0
    outer loop
      vertex 1.24372 -3.00261 3.175
      vertex 0.634043 -3.18755 0
      vertex 1.24372 -3.00261 0
    endloop
  endfacet
  facet normal 0.980786 0.195085 0
    outer loop
      vertex 1.1 0 8.175
      vertex 1.01627 0.420951 3.175
      vertex 1.01627 0.420951 8.175
    endloop
  endfacet
  facet normal 0.980786 0.195085 0
    outer loop
      vertex 1.01627 0.420951 3.175
      vertex 1.1 0 8.175
      vertex 1.1 0 3.175
    endloop
  endfacet
  facet normal -0.980786 0.195085 0
    outer loop
      vertex -1.1 0 3.175
      vertex -1.01627 0.420951 8.175
      vertex -1.01627 0.420951 3.175
    endloop
  endfacet
  facet normal -0.980786 0.195085 0
    outer loop
      vertex -1.01627 0.420951 8.175
      vertex -1.1 0 3.175
      vertex -1.1 0 8.175
    endloop
  endfacet
  facet normal 0.195085 0.980786 -0
    outer loop
      vertex 0.420951 1.01627 3.175
      vertex 0 1.1 8.175
      vertex 0.420951 1.01627 8.175
    endloop
  endfacet
  facet normal 0.195085 0.980786 0
    outer loop
      vertex 0 1.1 8.175
      vertex 0.420951 1.01627 3.175
      vertex 0 1.1 3.175
    endloop
  endfacet
  facet normal 0.831467 0.555575 0
    outer loop
      vertex 1.01627 0.420951 8.175
      vertex 0.777817 0.777817 3.175
      vertex 0.777817 0.777817 8.175
    endloop
  endfacet
  facet normal 0.831467 0.555575 0
    outer loop
      vertex 0.777817 0.777817 3.175
      vertex 1.01627 0.420951 8.175
      vertex 1.01627 0.420951 3.175
    endloop
  endfacet
  facet normal 0.195085 -0.980786 0
    outer loop
      vertex 0 -1.1 3.175
      vertex 0.420951 -1.01627 8.175
      vertex 0 -1.1 8.175
    endloop
  endfacet
  facet normal 0.195085 -0.980786 0
    outer loop
      vertex 0.420951 -1.01627 8.175
      vertex 0 -1.1 3.175
      vertex 0.420951 -1.01627 3.175
    endloop
  endfacet
  facet normal -0.195085 -0.980786 0
    outer loop
      vertex -0.420951 -1.01627 3.175
      vertex 0 -1.1 8.175
      vertex -0.420951 -1.01627 8.175
    endloop
  endfacet
  facet normal -0.195085 -0.980786 -0
    outer loop
      vertex 0 -1.1 8.175
      vertex -0.420951 -1.01627 3.175
      vertex 0 -1.1 3.175
    endloop
  endfacet
  facet normal 0.555575 0.831467 -0
    outer loop
      vertex 0.777817 0.777817 3.175
      vertex 0.420951 1.01627 8.175
      vertex 0.777817 0.777817 8.175
    endloop
  endfacet
  facet normal 0.555575 0.831467 0
    outer loop
      vertex 0.420951 1.01627 8.175
      vertex 0.777817 0.777817 3.175
      vertex 0.420951 1.01627 3.175
    endloop
  endfacet
  facet normal -0.195085 0.980786 0
    outer loop
      vertex 0 1.1 3.175
      vertex -0.420951 1.01627 8.175
      vertex 0 1.1 8.175
    endloop
  endfacet
  facet normal -0.195085 0.980786 0
    outer loop
      vertex -0.420951 1.01627 8.175
      vertex 0 1.1 3.175
      vertex -0.420951 1.01627 3.175
    endloop
  endfacet
  facet normal -0.555575 0.831467 0
    outer loop
      vertex -0.420951 1.01627 3.175
      vertex -0.777817 0.777817 8.175
      vertex -0.420951 1.01627 8.175
    endloop
  endfacet
  facet normal -0.555575 0.831467 0
    outer loop
      vertex -0.777817 0.777817 8.175
      vertex -0.420951 1.01627 3.175
      vertex -0.777817 0.777817 3.175
    endloop
  endfacet
  facet normal -0.980786 -0.195085 0
    outer loop
      vertex -1.01627 -0.420951 3.175
      vertex -1.1 0 8.175
      vertex -1.1 0 3.175
    endloop
  endfacet
  facet normal -0.980786 -0.195085 0
    outer loop
      vertex -1.1 0 8.175
      vertex -1.01627 -0.420951 3.175
      vertex -1.01627 -0.420951 8.175
    endloop
  endfacet
  facet normal -0.555575 -0.831467 0
    outer loop
      vertex -0.777817 -0.777817 3.175
      vertex -0.420951 -1.01627 8.175
      vertex -0.777817 -0.777817 8.175
    endloop
  endfacet
  facet normal -0.555575 -0.831467 -0
    outer loop
      vertex -0.420951 -1.01627 8.175
      vertex -0.777817 -0.777817 3.175
      vertex -0.420951 -1.01627 3.175
    endloop
  endfacet
  facet normal 0 0 1
    outer loop
      vertex 1.01627 0.420951 8.175
      vertex 1.01627 -0.420951 8.175
      vertex 1.1 0 8.175
    endloop
  endfacet
  facet normal 0 0 1
    outer loop
      vertex 0.777817 0.777817 8.175
      vertex 1.01627 -0.420951 8.175
      vertex 1.01627 0.420951 8.175
    endloop
  endfacet
  facet normal 0 0 1
    outer loop
      vertex 0.777817 0.777817 8.175
      vertex 0.777817 -0.777817 8.175
      vertex 1.01627 -0.420951 8.175
    endloop
  endfacet
  facet normal 0 0 1
    outer loop
      vertex 0.420951 1.01627 8.175
      vertex 0.777817 -0.777817 8.175
      vertex 0.777817 0.777817 8.175
    endloop
  endfacet
  facet normal 0 0 1
    outer loop
      vertex 0.420951 1.01627 8.175
      vertex 0.420951 -1.01627 8.175
      vertex 0.777817 -0.777817 8.175
    endloop
  endfacet
  facet normal 0 0 1
    outer loop
      vertex 0 1.1 8.175
      vertex 0.420951 -1.01627 8.175
      vertex 0.420951 1.01627 8.175
    endloop
  endfacet
  facet normal 0 0 1
    outer loop
      vertex 0 1.1 8.175
      vertex 0 -1.1 8.175
      vertex 0.420951 -1.01627 8.175
    endloop
  endfacet
  facet normal -0 0 1
    outer loop
      vertex -0.420951 1.01627 8.175
      vertex 0 -1.1 8.175
      vertex 0 1.1 8.175
    endloop
  endfacet
  facet normal 0 0 1
    outer loop
      vertex -0.420951 1.01627 8.175
      vertex -0.420951 -1.01627 8.175
      vertex 0 -1.1 8.175
    endloop
  endfacet
  facet normal -0 0 1
    outer loop
      vertex -0.777817 0.777817 8.175
      vertex -0.420951 -1.01627 8.175
      vertex -0.420951 1.01627 8.175
    endloop
  endfacet
  facet normal 0 0 1
    outer loop
      vertex -0.777817 0.777817 8.175
      vertex -0.777817 -0.777817 8.175
      vertex -0.420951 -1.01627 8.175
    endloop
  endfacet
  facet normal -0 0 1
    outer loop
      vertex -1.01627 0.420951 8.175
      vertex -0.777817 -0.777817 8.175
      vertex -0.777817 0.777817 8.175
    endloop
  endfacet
  facet normal 0 0 1
    outer loop
      vertex -1.01627 0.420951 8.175
      vertex -1.01627 -0.420951 8.175
      vertex -0.777817 -0.777817 8.175
    endloop
  endfacet
  facet normal 0 -0 1
    outer loop
      vertex -1.01627 -0.420951 8.175
      vertex -1.01627 0.420951 8.175
      vertex -1.1 0 8.175
    endloop
  endfacet
  facet normal -0.831467 0.555575 0
    outer loop
      vertex -1.01627 0.420951 3.175
      vertex -0.777817 0.777817 8.175
      vertex -0.777817 0.777817 3.175
    endloop
  endfacet
  facet normal -0.831467 0.555575 0
    outer loop
      vertex -0.777817 0.777817 8.175
      vertex -1.01627 0.420951 3.175
      vertex -1.01627 0.420951 8.175
    endloop
  endfacet
  facet normal 0.831467 -0.555575 0
    outer loop
      vertex 0.777817 -0.777817 8.175
      vertex 1.01627 -0.420951 3.175
      vertex 1.01627 -0.420951 8.175
    endloop
  endfacet
  facet normal 0.831467 -0.555575 0
    outer loop
      vertex 1.01627 -0.420951 3.175
      vertex 0.777817 -0.777817 8.175
      vertex 0.777817 -0.777817 3.175
    endloop
  endfacet
  facet normal 0.555575 -0.831467 0
    outer loop
      vertex 0.420951 -1.01627 3.175
      vertex 0.777817 -0.777817 8.175
      vertex 0.420951 -1.01627 8.175
    endloop
  endfacet
  facet normal 0.555575 -0.831467 0
    outer loop
      vertex 0.777817 -0.777817 8.175
      vertex 0.420951 -1.01627 3.175
      vertex 0.777817 -0.777817 3.175
    endloop
  endfacet
  facet normal 0.980786 -0.195085 0
    outer loop
      vertex 1.01627 -0.420951 8.175
      vertex 1.1 0 3.175
      vertex 1.1 0 8.175
    endloop
  endfacet
  facet normal 0.980786 -0.195085 0
    outer loop
      vertex 1.1 0 3.175
      vertex 1.01627 -0.420951 8.175
      vertex 1.01627 -0.420951 3.175
    endloop
  endfacet
  facet normal -0.831467 -0.555575 0
    outer loop
      vertex -0.777817 -0.777817 3.175
      vertex -1.01627 -0.420951 8.175
      vertex -1.01627 -0.420951 3.175
    endloop
  endfacet
  facet normal -0.831467 -0.555575 0
    outer loop
      vertex -1.01627 -0.420951 8.175
      vertex -0.777817 -0.777817 3.175
      vertex -0.777817 -0.777817 8.175
    endloop
  endfacet
endsolid OpenSCAD_Model
