solid OpenSCAD_Model
  facet normal -0.980762 0.195209 0
    outer loop
      vertex 17.0541 12.5634 9.52
      vertex 17.141 13 17
      vertex 17.141 13 9.52
    endloop
  endfacet
  facet normal -0.980762 0.195209 0
    outer loop
      vertex 17.141 13 17
      vertex 17.0541 12.5634 9.52
      vertex 17.0541 12.5634 17
    endloop
  endfacet
  facet normal 0.980762 0.195209 0
    outer loop
      vertex 14.9459 12.5634 17
      vertex 14.859 13 9.52
      vertex 14.859 13 17
    endloop
  endfacet
  facet normal 0.980762 0.195209 0
    outer loop
      vertex 14.859 13 9.52
      vertex 14.9459 12.5634 17
      vertex 14.9459 12.5634 9.52
    endloop
  endfacet
  facet normal -0.195209 0.980762 0
    outer loop
      vertex 16.4366 11.9459 9.52
      vertex 16 11.859 17
      vertex 16.4366 11.9459 17
    endloop
  endfacet
  facet normal -0.195209 0.980762 0
    outer loop
      vertex 16 11.859 17
      vertex 16.4366 11.9459 9.52
      vertex 16 11.859 9.52
    endloop
  endfacet
  facet normal -0.831532 0.555477 0
    outer loop
      vertex 16.8068 12.1932 9.52
      vertex 17.0541 12.5634 17
      vertex 17.0541 12.5634 9.52
    endloop
  endfacet
  facet normal -0.831532 0.555477 0
    outer loop
      vertex 17.0541 12.5634 17
      vertex 16.8068 12.1932 9.52
      vertex 16.8068 12.1932 17
    endloop
  endfacet
  facet normal -0.195209 -0.980762 0
    outer loop
      vertex 16 14.141 9.52
      vertex 16.4366 14.0541 17
      vertex 16 14.141 17
    endloop
  endfacet
  facet normal -0.195209 -0.980762 -0
    outer loop
      vertex 16.4366 14.0541 17
      vertex 16 14.141 9.52
      vertex 16.4366 14.0541 9.52
    endloop
  endfacet
  facet normal 0.195209 -0.980762 0
    outer loop
      vertex 15.5634 14.0541 9.52
      vertex 16 14.141 17
      vertex 15.5634 14.0541 17
    endloop
  endfacet
  facet normal 0.195209 -0.980762 0
    outer loop
      vertex 16 14.141 17
      vertex 15.5634 14.0541 9.52
      vertex 16 14.141 9.52
    endloop
  endfacet
  facet normal -0.555477 0.831532 0
    outer loop
      vertex 16.8068 12.1932 9.52
      vertex 16.4366 11.9459 17
      vertex 16.8068 12.1932 17
    endloop
  endfacet
  facet normal -0.555477 0.831532 0
    outer loop
      vertex 16.4366 11.9459 17
      vertex 16.8068 12.1932 9.52
      vertex 16.4366 11.9459 9.52
    endloop
  endfacet
  facet normal 0.195209 0.980762 -0
    outer loop
      vertex 16 11.859 9.52
      vertex 15.5634 11.9459 17
      vertex 16 11.859 17
    endloop
  endfacet
  facet normal 0.195209 0.980762 0
    outer loop
      vertex 15.5634 11.9459 17
      vertex 16 11.859 9.52
      vertex 15.5634 11.9459 9.52
    endloop
  endfacet
  facet normal 0.555477 0.831532 -0
    outer loop
      vertex 15.5634 11.9459 9.52
      vertex 15.1932 12.1932 17
      vertex 15.5634 11.9459 17
    endloop
  endfacet
  facet normal 0.555477 0.831532 0
    outer loop
      vertex 15.1932 12.1932 17
      vertex 15.5634 11.9459 9.52
      vertex 15.1932 12.1932 9.52
    endloop
  endfacet
  facet normal 0.980762 -0.195209 0
    outer loop
      vertex 14.859 13 17
      vertex 14.9459 13.4366 9.52
      vertex 14.9459 13.4366 17
    endloop
  endfacet
  facet normal 0.980762 -0.195209 0
    outer loop
      vertex 14.9459 13.4366 9.52
      vertex 14.859 13 17
      vertex 14.859 13 9.52
    endloop
  endfacet
  facet normal 0.555477 -0.831532 0
    outer loop
      vertex 15.1932 13.8068 9.52
      vertex 15.5634 14.0541 17
      vertex 15.1932 13.8068 17
    endloop
  endfacet
  facet normal 0.555477 -0.831532 0
    outer loop
      vertex 15.5634 14.0541 17
      vertex 15.1932 13.8068 9.52
      vertex 15.5634 14.0541 9.52
    endloop
  endfacet
  facet normal 0.831532 -0.555477 0
    outer loop
      vertex 14.9459 13.4366 17
      vertex 15.1932 13.8068 9.52
      vertex 15.1932 13.8068 17
    endloop
  endfacet
  facet normal 0.831532 -0.555477 0
    outer loop
      vertex 15.1932 13.8068 9.52
      vertex 14.9459 13.4366 17
      vertex 14.9459 13.4366 9.52
    endloop
  endfacet
  facet normal 0.831532 0.555477 0
    outer loop
      vertex 15.1932 12.1932 17
      vertex 14.9459 12.5634 9.52
      vertex 14.9459 12.5634 17
    endloop
  endfacet
  facet normal 0.831532 0.555477 0
    outer loop
      vertex 14.9459 12.5634 9.52
      vertex 15.1932 12.1932 17
      vertex 15.1932 12.1932 9.52
    endloop
  endfacet
  facet normal -0.831532 -0.555477 0
    outer loop
      vertex 17.0541 13.4366 9.52
      vertex 16.8068 13.8068 17
      vertex 16.8068 13.8068 9.52
    endloop
  endfacet
  facet normal -0.831532 -0.555477 0
    outer loop
      vertex 16.8068 13.8068 17
      vertex 17.0541 13.4366 9.52
      vertex 17.0541 13.4366 17
    endloop
  endfacet
  facet normal -0.555477 -0.831532 0
    outer loop
      vertex 16.4366 14.0541 9.52
      vertex 16.8068 13.8068 17
      vertex 16.4366 14.0541 17
    endloop
  endfacet
  facet normal -0.555477 -0.831532 -0
    outer loop
      vertex 16.8068 13.8068 17
      vertex 16.4366 14.0541 9.52
      vertex 16.8068 13.8068 9.52
    endloop
  endfacet
  facet normal -0.980762 -0.195209 0
    outer loop
      vertex 17.141 13 9.52
      vertex 17.0541 13.4366 17
      vertex 17.0541 13.4366 9.52
    endloop
  endfacet
  facet normal -0.980762 -0.195209 0
    outer loop
      vertex 17.0541 13.4366 17
      vertex 17.141 13 9.52
      vertex 17.141 13 17
    endloop
  endfacet
  facet normal -0.980797 0.195029 0
    outer loop
      vertex 17.4667 12.3925 9.5
      vertex 17.5875 13 9.52
      vertex 17.5875 13 9.5
    endloop
  endfacet
  facet normal -0.980797 0.195029 0
    outer loop
      vertex 17.5875 13 9.52
      vertex 17.4667 12.3925 9.5
      vertex 17.4667 12.3925 9.52
    endloop
  endfacet
  facet normal 0.980797 0.195029 0
    outer loop
      vertex 14.5333 12.3925 9.52
      vertex 14.4125 13 9.5
      vertex 14.4125 13 9.52
    endloop
  endfacet
  facet normal 0.980797 0.195029 0
    outer loop
      vertex 14.4125 13 9.5
      vertex 14.5333 12.3925 9.52
      vertex 14.5333 12.3925 9.5
    endloop
  endfacet
  facet normal 0.980797 -0.195029 0
    outer loop
      vertex 14.4125 13 9.52
      vertex 14.5333 13.6075 9.5
      vertex 14.5333 13.6075 9.52
    endloop
  endfacet
  facet normal 0.980797 -0.195029 0
    outer loop
      vertex 14.5333 13.6075 9.5
      vertex 14.4125 13 9.52
      vertex 14.4125 13 9.5
    endloop
  endfacet
  facet normal 0.195029 0.980797 -0
    outer loop
      vertex 16 11.4125 9.5
      vertex 15.3925 11.5333 9.52
      vertex 16 11.4125 9.52
    endloop
  endfacet
  facet normal 0.195029 0.980797 0
    outer loop
      vertex 15.3925 11.5333 9.52
      vertex 16 11.4125 9.5
      vertex 15.3925 11.5333 9.5
    endloop
  endfacet
  facet normal 0.555668 0.831404 -0
    outer loop
      vertex 15.3925 11.5333 9.5
      vertex 14.8775 11.8775 9.52
      vertex 15.3925 11.5333 9.52
    endloop
  endfacet
  facet normal 0.555668 0.831404 0
    outer loop
      vertex 14.8775 11.8775 9.52
      vertex 15.3925 11.5333 9.5
      vertex 14.8775 11.8775 9.5
    endloop
  endfacet
  facet normal 0 0 -1
    outer loop
      vertex 17.141 13 9.52
      vertex 17.5875 13 9.52
      vertex 17.4667 12.3925 9.52
    endloop
  endfacet
  facet normal 0 0 -1
    outer loop
      vertex 17.5875 13 9.52
      vertex 17.141 13 9.52
      vertex 17.4667 13.6075 9.52
    endloop
  endfacet
  facet normal 0 0 -1
    outer loop
      vertex 17.0541 12.5634 9.52
      vertex 17.4667 12.3925 9.52
      vertex 17.1225 11.8775 9.52
    endloop
  endfacet
  facet normal 0 0 -1
    outer loop
      vertex 17.4667 12.3925 9.52
      vertex 17.0541 12.5634 9.52
      vertex 17.141 13 9.52
    endloop
  endfacet
  facet normal 0 0 -1
    outer loop
      vertex 17.1225 11.8775 9.52
      vertex 16.8068 12.1932 9.52
      vertex 17.0541 12.5634 9.52
    endloop
  endfacet
  facet normal 0 0 -1
    outer loop
      vertex 16.6075 11.5333 9.52
      vertex 16.8068 12.1932 9.52
      vertex 17.1225 11.8775 9.52
    endloop
  endfacet
  facet normal 0 0 -1
    outer loop
      vertex 16.6075 11.5333 9.52
      vertex 16.4366 11.9459 9.52
      vertex 16.8068 12.1932 9.52
    endloop
  endfacet
  facet normal 0 0 -1
    outer loop
      vertex 16 11.4125 9.52
      vertex 16.4366 11.9459 9.52
      vertex 16.6075 11.5333 9.52
    endloop
  endfacet
  facet normal 0 0 -1
    outer loop
      vertex 16 11.4125 9.52
      vertex 16 11.859 9.52
      vertex 16.4366 11.9459 9.52
    endloop
  endfacet
  facet normal 0 0 -1
    outer loop
      vertex 16 11.4125 9.52
      vertex 15.5634 11.9459 9.52
      vertex 16 11.859 9.52
    endloop
  endfacet
  facet normal 0 0 -1
    outer loop
      vertex 15.3925 11.5333 9.52
      vertex 15.5634 11.9459 9.52
      vertex 16 11.4125 9.52
    endloop
  endfacet
  facet normal 0 0 -1
    outer loop
      vertex 15.3925 11.5333 9.52
      vertex 15.1932 12.1932 9.52
      vertex 15.5634 11.9459 9.52
    endloop
  endfacet
  facet normal 0 0 -1
    outer loop
      vertex 14.8775 11.8775 9.52
      vertex 15.1932 12.1932 9.52
      vertex 15.3925 11.5333 9.52
    endloop
  endfacet
  facet normal -0 0 -1
    outer loop
      vertex 15.1932 12.1932 9.52
      vertex 14.8775 11.8775 9.52
      vertex 14.9459 12.5634 9.52
    endloop
  endfacet
  facet normal 0 0 -1
    outer loop
      vertex 14.5333 12.3925 9.52
      vertex 14.9459 12.5634 9.52
      vertex 14.8775 11.8775 9.52
    endloop
  endfacet
  facet normal -0 0 -1
    outer loop
      vertex 14.9459 12.5634 9.52
      vertex 14.5333 12.3925 9.52
      vertex 14.859 13 9.52
    endloop
  endfacet
  facet normal 0 0 -1
    outer loop
      vertex 17.0541 13.4366 9.52
      vertex 17.4667 13.6075 9.52
      vertex 17.141 13 9.52
    endloop
  endfacet
  facet normal -0 0 -1
    outer loop
      vertex 17.4667 13.6075 9.52
      vertex 17.0541 13.4366 9.52
      vertex 17.1225 14.1225 9.52
    endloop
  endfacet
  facet normal 0 0 -1
    outer loop
      vertex 16.8068 13.8068 9.52
      vertex 17.1225 14.1225 9.52
      vertex 17.0541 13.4366 9.52
    endloop
  endfacet
  facet normal 0 0 -1
    outer loop
      vertex 16.8068 13.8068 9.52
      vertex 16.6075 14.4667 9.52
      vertex 17.1225 14.1225 9.52
    endloop
  endfacet
  facet normal 0 0 -1
    outer loop
      vertex 16.4366 14.0541 9.52
      vertex 16.6075 14.4667 9.52
      vertex 16.8068 13.8068 9.52
    endloop
  endfacet
  facet normal 0 0 -1
    outer loop
      vertex 16 14.141 9.52
      vertex 16.6075 14.4667 9.52
      vertex 16.4366 14.0541 9.52
    endloop
  endfacet
  facet normal 0 0 -1
    outer loop
      vertex 16 14.141 9.52
      vertex 16 14.5875 9.52
      vertex 16.6075 14.4667 9.52
    endloop
  endfacet
  facet normal 0 0 -1
    outer loop
      vertex 15.5634 14.0541 9.52
      vertex 16 14.5875 9.52
      vertex 16 14.141 9.52
    endloop
  endfacet
  facet normal 0 0 -1
    outer loop
      vertex 15.5634 14.0541 9.52
      vertex 15.3925 14.4667 9.52
      vertex 16 14.5875 9.52
    endloop
  endfacet
  facet normal 0 0 -1
    outer loop
      vertex 15.1932 13.8068 9.52
      vertex 15.3925 14.4667 9.52
      vertex 15.5634 14.0541 9.52
    endloop
  endfacet
  facet normal 0 0 -1
    outer loop
      vertex 14.8775 14.1225 9.52
      vertex 15.1932 13.8068 9.52
      vertex 14.9459 13.4366 9.52
    endloop
  endfacet
  facet normal 0 0 -1
    outer loop
      vertex 15.1932 13.8068 9.52
      vertex 14.8775 14.1225 9.52
      vertex 15.3925 14.4667 9.52
    endloop
  endfacet
  facet normal 0 0 -1
    outer loop
      vertex 14.5333 13.6075 9.52
      vertex 14.9459 13.4366 9.52
      vertex 14.859 13 9.52
    endloop
  endfacet
  facet normal 0 0 -1
    outer loop
      vertex 14.4125 13 9.52
      vertex 14.859 13 9.52
      vertex 14.5333 12.3925 9.52
    endloop
  endfacet
  facet normal 0 0 -1
    outer loop
      vertex 14.9459 13.4366 9.52
      vertex 14.5333 13.6075 9.52
      vertex 14.8775 14.1225 9.52
    endloop
  endfacet
  facet normal 0 0 -1
    outer loop
      vertex 14.859 13 9.52
      vertex 14.4125 13 9.52
      vertex 14.5333 13.6075 9.52
    endloop
  endfacet
  facet normal -0.555668 0.831404 0
    outer loop
      vertex 17.1225 11.8775 9.5
      vertex 16.6075 11.5333 9.52
      vertex 17.1225 11.8775 9.52
    endloop
  endfacet
  facet normal -0.555668 0.831404 0
    outer loop
      vertex 16.6075 11.5333 9.52
      vertex 17.1225 11.8775 9.5
      vertex 16.6075 11.5333 9.5
    endloop
  endfacet
  facet normal -0.831404 0.555668 0
    outer loop
      vertex 17.1225 11.8775 9.5
      vertex 17.4667 12.3925 9.52
      vertex 17.4667 12.3925 9.5
    endloop
  endfacet
  facet normal -0.831404 0.555668 0
    outer loop
      vertex 17.4667 12.3925 9.52
      vertex 17.1225 11.8775 9.5
      vertex 17.1225 11.8775 9.52
    endloop
  endfacet
  facet normal -0.195029 0.980797 0
    outer loop
      vertex 16.6075 11.5333 9.5
      vertex 16 11.4125 9.52
      vertex 16.6075 11.5333 9.52
    endloop
  endfacet
  facet normal -0.195029 0.980797 0
    outer loop
      vertex 16 11.4125 9.52
      vertex 16.6075 11.5333 9.5
      vertex 16 11.4125 9.5
    endloop
  endfacet
  facet normal 0.831404 0.555668 0
    outer loop
      vertex 14.8775 11.8775 9.52
      vertex 14.5333 12.3925 9.5
      vertex 14.5333 12.3925 9.52
    endloop
  endfacet
  facet normal 0.831404 0.555668 0
    outer loop
      vertex 14.5333 12.3925 9.5
      vertex 14.8775 11.8775 9.52
      vertex 14.8775 11.8775 9.5
    endloop
  endfacet
  facet normal -0.555668 -0.831404 0
    outer loop
      vertex 16.6075 14.4667 9.5
      vertex 17.1225 14.1225 9.52
      vertex 16.6075 14.4667 9.52
    endloop
  endfacet
  facet normal -0.555668 -0.831404 -0
    outer loop
      vertex 17.1225 14.1225 9.52
      vertex 16.6075 14.4667 9.5
      vertex 17.1225 14.1225 9.5
    endloop
  endfacet
  facet normal -0.831404 -0.555668 0
    outer loop
      vertex 17.4667 13.6075 9.5
      vertex 17.1225 14.1225 9.52
      vertex 17.1225 14.1225 9.5
    endloop
  endfacet
  facet normal -0.831404 -0.555668 0
    outer loop
      vertex 17.1225 14.1225 9.52
      vertex 17.4667 13.6075 9.5
      vertex 17.4667 13.6075 9.52
    endloop
  endfacet
  facet normal -0.980797 -0.195029 0
    outer loop
      vertex 17.5875 13 9.5
      vertex 17.4667 13.6075 9.52
      vertex 17.4667 13.6075 9.5
    endloop
  endfacet
  facet normal -0.980797 -0.195029 0
    outer loop
      vertex 17.4667 13.6075 9.52
      vertex 17.5875 13 9.5
      vertex 17.5875 13 9.52
    endloop
  endfacet
  facet normal 0.555668 -0.831404 0
    outer loop
      vertex 14.8775 14.1225 9.5
      vertex 15.3925 14.4667 9.52
      vertex 14.8775 14.1225 9.52
    endloop
  endfacet
  facet normal 0.555668 -0.831404 0
    outer loop
      vertex 15.3925 14.4667 9.52
      vertex 14.8775 14.1225 9.5
      vertex 15.3925 14.4667 9.5
    endloop
  endfacet
  facet normal 0.831404 -0.555668 0
    outer loop
      vertex 14.5333 13.6075 9.52
      vertex 14.8775 14.1225 9.5
      vertex 14.8775 14.1225 9.52
    endloop
  endfacet
  facet normal 0.831404 -0.555668 0
    outer loop
      vertex 14.8775 14.1225 9.5
      vertex 14.5333 13.6075 9.52
      vertex 14.5333 13.6075 9.5
    endloop
  endfacet
  facet normal -0.195029 -0.980797 0
    outer loop
      vertex 16 14.5875 9.5
      vertex 16.6075 14.4667 9.52
      vertex 16 14.5875 9.52
    endloop
  endfacet
  facet normal -0.195029 -0.980797 -0
    outer loop
      vertex 16.6075 14.4667 9.52
      vertex 16 14.5875 9.5
      vertex 16.6075 14.4667 9.5
    endloop
  endfacet
  facet normal 0.195029 -0.980797 0
    outer loop
      vertex 15.3925 14.4667 9.5
      vertex 16 14.5875 9.52
      vertex 15.3925 14.4667 9.52
    endloop
  endfacet
  facet normal 0.195029 -0.980797 0
    outer loop
      vertex 16 14.5875 9.52
      vertex 15.3925 14.4667 9.5
      vertex 16 14.5875 9.5
    endloop
  endfacet
  facet normal -0.980783 0.195101 0
    outer loop
      vertex 4.55415 16.5634 9.52
      vertex 4.641 17 17
      vertex 4.641 17 9.52
    endloop
  endfacet
  facet normal -0.980783 0.195101 0
    outer loop
      vertex 4.641 17 17
      vertex 4.55415 16.5634 9.52
      vertex 4.55415 16.5634 17
    endloop
  endfacet
  facet normal 0.980783 0.195101 0
    outer loop
      vertex 2.44585 16.5634 17
      vertex 2.359 17 9.52
      vertex 2.359 17 17
    endloop
  endfacet
  facet normal 0.980783 0.195101 0
    outer loop
      vertex 2.359 17 9.52
      vertex 2.44585 16.5634 17
      vertex 2.44585 16.5634 9.52
    endloop
  endfacet
  facet normal -0.195192 0.980765 0
    outer loop
      vertex 3.93664 15.9459 9.52
      vertex 3.5 15.859 17
      vertex 3.93664 15.9459 17
    endloop
  endfacet
  facet normal -0.195192 0.980765 0
    outer loop
      vertex 3.5 15.859 17
      vertex 3.93664 15.9459 9.52
      vertex 3.5 15.859 9.52
    endloop
  endfacet
  facet normal -0.83149 0.55554 0
    outer loop
      vertex 4.30681 16.1932 9.52
      vertex 4.55415 16.5634 17
      vertex 4.55415 16.5634 9.52
    endloop
  endfacet
  facet normal -0.83149 0.55554 0
    outer loop
      vertex 4.55415 16.5634 17
      vertex 4.30681 16.1932 9.52
      vertex 4.30681 16.1932 17
    endloop
  endfacet
  facet normal -0.195192 -0.980765 0
    outer loop
      vertex 3.5 18.141 9.52
      vertex 3.93664 18.0541 17
      vertex 3.5 18.141 17
    endloop
  endfacet
  facet normal -0.195192 -0.980765 -0
    outer loop
      vertex 3.93664 18.0541 17
      vertex 3.5 18.141 9.52
      vertex 3.93664 18.0541 9.52
    endloop
  endfacet
  facet normal 0.195192 -0.980765 0
    outer loop
      vertex 3.06336 18.0541 9.52
      vertex 3.5 18.141 17
      vertex 3.06336 18.0541 17
    endloop
  endfacet
  facet normal 0.195192 -0.980765 0
    outer loop
      vertex 3.5 18.141 17
      vertex 3.06336 18.0541 9.52
      vertex 3.5 18.141 9.52
    endloop
  endfacet
  facet normal -0.555509 0.831511 0
    outer loop
      vertex 4.30681 16.1932 9.52
      vertex 3.93664 15.9459 17
      vertex 4.30681 16.1932 17
    endloop
  endfacet
  facet normal -0.555509 0.831511 0
    outer loop
      vertex 3.93664 15.9459 17
      vertex 4.30681 16.1932 9.52
      vertex 3.93664 15.9459 9.52
    endloop
  endfacet
  facet normal 0.195192 0.980765 -0
    outer loop
      vertex 3.5 15.859 9.52
      vertex 3.06336 15.9459 17
      vertex 3.5 15.859 17
    endloop
  endfacet
  facet normal 0.195192 0.980765 0
    outer loop
      vertex 3.06336 15.9459 17
      vertex 3.5 15.859 9.52
      vertex 3.06336 15.9459 9.52
    endloop
  endfacet
  facet normal 0.555509 0.831511 -0
    outer loop
      vertex 3.06336 15.9459 9.52
      vertex 2.69319 16.1932 17
      vertex 3.06336 15.9459 17
    endloop
  endfacet
  facet normal 0.555509 0.831511 0
    outer loop
      vertex 2.69319 16.1932 17
      vertex 3.06336 15.9459 9.52
      vertex 2.69319 16.1932 9.52
    endloop
  endfacet
  facet normal 0.980783 -0.195101 0
    outer loop
      vertex 2.359 17 17
      vertex 2.44585 17.4366 9.52
      vertex 2.44585 17.4366 17
    endloop
  endfacet
  facet normal 0.980783 -0.195101 0
    outer loop
      vertex 2.44585 17.4366 9.52
      vertex 2.359 17 17
      vertex 2.359 17 9.52
    endloop
  endfacet
  facet normal 0.555509 -0.831511 0
    outer loop
      vertex 2.69319 17.8068 9.52
      vertex 3.06336 18.0541 17
      vertex 2.69319 17.8068 17
    endloop
  endfacet
  facet normal 0.555509 -0.831511 0
    outer loop
      vertex 3.06336 18.0541 17
      vertex 2.69319 17.8068 9.52
      vertex 3.06336 18.0541 9.52
    endloop
  endfacet
  facet normal 0.83149 -0.55554 0
    outer loop
      vertex 2.44585 17.4366 17
      vertex 2.69319 17.8068 9.52
      vertex 2.69319 17.8068 17
    endloop
  endfacet
  facet normal 0.83149 -0.55554 0
    outer loop
      vertex 2.69319 17.8068 9.52
      vertex 2.44585 17.4366 17
      vertex 2.44585 17.4366 9.52
    endloop
  endfacet
  facet normal 0.83149 0.55554 0
    outer loop
      vertex 2.69319 16.1932 17
      vertex 2.44585 16.5634 9.52
      vertex 2.44585 16.5634 17
    endloop
  endfacet
  facet normal 0.83149 0.55554 0
    outer loop
      vertex 2.44585 16.5634 9.52
      vertex 2.69319 16.1932 17
      vertex 2.69319 16.1932 9.52
    endloop
  endfacet
  facet normal -0.83149 -0.55554 0
    outer loop
      vertex 4.55415 17.4366 9.52
      vertex 4.30681 17.8068 17
      vertex 4.30681 17.8068 9.52
    endloop
  endfacet
  facet normal -0.83149 -0.55554 0
    outer loop
      vertex 4.30681 17.8068 17
      vertex 4.55415 17.4366 9.52
      vertex 4.55415 17.4366 17
    endloop
  endfacet
  facet normal -0.555509 -0.831511 0
    outer loop
      vertex 3.93664 18.0541 9.52
      vertex 4.30681 17.8068 17
      vertex 3.93664 18.0541 17
    endloop
  endfacet
  facet normal -0.555509 -0.831511 -0
    outer loop
      vertex 4.30681 17.8068 17
      vertex 3.93664 18.0541 9.52
      vertex 4.30681 17.8068 9.52
    endloop
  endfacet
  facet normal -0.980783 -0.195101 0
    outer loop
      vertex 4.641 17 9.52
      vertex 4.55415 17.4366 17
      vertex 4.55415 17.4366 9.52
    endloop
  endfacet
  facet normal -0.980783 -0.195101 0
    outer loop
      vertex 4.55415 17.4366 17
      vertex 4.641 17 9.52
      vertex 4.641 17 17
    endloop
  endfacet
  facet normal -0.980785 0.195091 0
    outer loop
      vertex 4.96666 16.3925 9.5
      vertex 5.0875 17 9.52
      vertex 5.0875 17 9.5
    endloop
  endfacet
  facet normal -0.980785 0.195091 0
    outer loop
      vertex 5.0875 17 9.52
      vertex 4.96666 16.3925 9.5
      vertex 4.96666 16.3925 9.52
    endloop
  endfacet
  facet normal 0.980785 0.195091 0
    outer loop
      vertex 2.03334 16.3925 9.52
      vertex 1.9125 17 9.5
      vertex 1.9125 17 9.52
    endloop
  endfacet
  facet normal 0.980785 0.195091 0
    outer loop
      vertex 1.9125 17 9.5
      vertex 2.03334 16.3925 9.52
      vertex 2.03334 16.3925 9.5
    endloop
  endfacet
  facet normal 0.980785 -0.195091 0
    outer loop
      vertex 1.9125 17 9.52
      vertex 2.03334 17.6075 9.5
      vertex 2.03334 17.6075 9.52
    endloop
  endfacet
  facet normal 0.980785 -0.195091 0
    outer loop
      vertex 2.03334 17.6075 9.5
      vertex 1.9125 17 9.52
      vertex 1.9125 17 9.5
    endloop
  endfacet
  facet normal 0.195026 0.980798 -0
    outer loop
      vertex 3.5 15.4125 9.5
      vertex 2.89249 15.5333 9.52
      vertex 3.5 15.4125 9.52
    endloop
  endfacet
  facet normal 0.195026 0.980798 0
    outer loop
      vertex 2.89249 15.5333 9.52
      vertex 3.5 15.4125 9.5
      vertex 2.89249 15.5333 9.5
    endloop
  endfacet
  facet normal 0.555654 0.831414 -0
    outer loop
      vertex 2.89249 15.5333 9.5
      vertex 2.37747 15.8775 9.52
      vertex 2.89249 15.5333 9.52
    endloop
  endfacet
  facet normal 0.555654 0.831414 0
    outer loop
      vertex 2.37747 15.8775 9.52
      vertex 2.89249 15.5333 9.5
      vertex 2.37747 15.8775 9.5
    endloop
  endfacet
  facet normal 0 0 -1
    outer loop
      vertex 4.641 17 9.52
      vertex 5.0875 17 9.52
      vertex 4.96666 16.3925 9.52
    endloop
  endfacet
  facet normal 0 0 -1
    outer loop
      vertex 5.0875 17 9.52
      vertex 4.641 17 9.52
      vertex 4.96666 17.6075 9.52
    endloop
  endfacet
  facet normal 0 0 -1
    outer loop
      vertex 4.55415 16.5634 9.52
      vertex 4.96666 16.3925 9.52
      vertex 4.62253 15.8775 9.52
    endloop
  endfacet
  facet normal 0 0 -1
    outer loop
      vertex 4.96666 16.3925 9.52
      vertex 4.55415 16.5634 9.52
      vertex 4.641 17 9.52
    endloop
  endfacet
  facet normal 0 0 -1
    outer loop
      vertex 4.62253 15.8775 9.52
      vertex 4.30681 16.1932 9.52
      vertex 4.55415 16.5634 9.52
    endloop
  endfacet
  facet normal 0 0 -1
    outer loop
      vertex 4.10751 15.5333 9.52
      vertex 4.30681 16.1932 9.52
      vertex 4.62253 15.8775 9.52
    endloop
  endfacet
  facet normal 0 0 -1
    outer loop
      vertex 4.10751 15.5333 9.52
      vertex 3.93664 15.9459 9.52
      vertex 4.30681 16.1932 9.52
    endloop
  endfacet
  facet normal 0 0 -1
    outer loop
      vertex 3.5 15.4125 9.52
      vertex 3.93664 15.9459 9.52
      vertex 4.10751 15.5333 9.52
    endloop
  endfacet
  facet normal 0 0 -1
    outer loop
      vertex 3.5 15.4125 9.52
      vertex 3.5 15.859 9.52
      vertex 3.93664 15.9459 9.52
    endloop
  endfacet
  facet normal 0 0 -1
    outer loop
      vertex 3.5 15.4125 9.52
      vertex 3.06336 15.9459 9.52
      vertex 3.5 15.859 9.52
    endloop
  endfacet
  facet normal 0 0 -1
    outer loop
      vertex 2.89249 15.5333 9.52
      vertex 3.06336 15.9459 9.52
      vertex 3.5 15.4125 9.52
    endloop
  endfacet
  facet normal 0 0 -1
    outer loop
      vertex 2.89249 15.5333 9.52
      vertex 2.69319 16.1932 9.52
      vertex 3.06336 15.9459 9.52
    endloop
  endfacet
  facet normal 0 0 -1
    outer loop
      vertex 2.37747 15.8775 9.52
      vertex 2.69319 16.1932 9.52
      vertex 2.89249 15.5333 9.52
    endloop
  endfacet
  facet normal -0 0 -1
    outer loop
      vertex 2.69319 16.1932 9.52
      vertex 2.37747 15.8775 9.52
      vertex 2.44585 16.5634 9.52
    endloop
  endfacet
  facet normal 0 0 -1
    outer loop
      vertex 2.03334 16.3925 9.52
      vertex 2.44585 16.5634 9.52
      vertex 2.37747 15.8775 9.52
    endloop
  endfacet
  facet normal -0 0 -1
    outer loop
      vertex 2.44585 16.5634 9.52
      vertex 2.03334 16.3925 9.52
      vertex 2.359 17 9.52
    endloop
  endfacet
  facet normal 0 0 -1
    outer loop
      vertex 4.55415 17.4366 9.52
      vertex 4.96666 17.6075 9.52
      vertex 4.641 17 9.52
    endloop
  endfacet
  facet normal -0 0 -1
    outer loop
      vertex 4.96666 17.6075 9.52
      vertex 4.55415 17.4366 9.52
      vertex 4.62253 18.1225 9.52
    endloop
  endfacet
  facet normal 0 0 -1
    outer loop
      vertex 4.30681 17.8068 9.52
      vertex 4.62253 18.1225 9.52
      vertex 4.55415 17.4366 9.52
    endloop
  endfacet
  facet normal 0 0 -1
    outer loop
      vertex 4.30681 17.8068 9.52
      vertex 4.10751 18.4667 9.52
      vertex 4.62253 18.1225 9.52
    endloop
  endfacet
  facet normal 0 0 -1
    outer loop
      vertex 3.93664 18.0541 9.52
      vertex 4.10751 18.4667 9.52
      vertex 4.30681 17.8068 9.52
    endloop
  endfacet
  facet normal 0 0 -1
    outer loop
      vertex 3.5 18.141 9.52
      vertex 4.10751 18.4667 9.52
      vertex 3.93664 18.0541 9.52
    endloop
  endfacet
  facet normal 0 0 -1
    outer loop
      vertex 3.5 18.141 9.52
      vertex 3.5 18.5875 9.52
      vertex 4.10751 18.4667 9.52
    endloop
  endfacet
  facet normal 0 0 -1
    outer loop
      vertex 3.06336 18.0541 9.52
      vertex 3.5 18.5875 9.52
      vertex 3.5 18.141 9.52
    endloop
  endfacet
  facet normal 0 0 -1
    outer loop
      vertex 3.06336 18.0541 9.52
      vertex 2.89249 18.4667 9.52
      vertex 3.5 18.5875 9.52
    endloop
  endfacet
  facet normal 0 0 -1
    outer loop
      vertex 2.69319 17.8068 9.52
      vertex 2.89249 18.4667 9.52
      vertex 3.06336 18.0541 9.52
    endloop
  endfacet
  facet normal 0 0 -1
    outer loop
      vertex 2.37747 18.1225 9.52
      vertex 2.69319 17.8068 9.52
      vertex 2.44585 17.4366 9.52
    endloop
  endfacet
  facet normal 0 0 -1
    outer loop
      vertex 2.69319 17.8068 9.52
      vertex 2.37747 18.1225 9.52
      vertex 2.89249 18.4667 9.52
    endloop
  endfacet
  facet normal 0 0 -1
    outer loop
      vertex 2.03334 17.6075 9.52
      vertex 2.44585 17.4366 9.52
      vertex 2.359 17 9.52
    endloop
  endfacet
  facet normal 0 0 -1
    outer loop
      vertex 1.9125 17 9.52
      vertex 2.359 17 9.52
      vertex 2.03334 16.3925 9.52
    endloop
  endfacet
  facet normal 0 0 -1
    outer loop
      vertex 2.44585 17.4366 9.52
      vertex 2.03334 17.6075 9.52
      vertex 2.37747 18.1225 9.52
    endloop
  endfacet
  facet normal 0 0 -1
    outer loop
      vertex 2.359 17 9.52
      vertex 1.9125 17 9.52
      vertex 2.03334 17.6075 9.52
    endloop
  endfacet
  facet normal -0.555654 0.831414 0
    outer loop
      vertex 4.62253 15.8775 9.5
      vertex 4.10751 15.5333 9.52
      vertex 4.62253 15.8775 9.52
    endloop
  endfacet
  facet normal -0.555654 0.831414 0
    outer loop
      vertex 4.10751 15.5333 9.52
      vertex 4.62253 15.8775 9.5
      vertex 4.10751 15.5333 9.5
    endloop
  endfacet
  facet normal -0.831456 0.55559 0
    outer loop
      vertex 4.62253 15.8775 9.5
      vertex 4.96666 16.3925 9.52
      vertex 4.96666 16.3925 9.5
    endloop
  endfacet
  facet normal -0.831456 0.55559 0
    outer loop
      vertex 4.96666 16.3925 9.52
      vertex 4.62253 15.8775 9.5
      vertex 4.62253 15.8775 9.52
    endloop
  endfacet
  facet normal -0.195026 0.980798 0
    outer loop
      vertex 4.10751 15.5333 9.5
      vertex 3.5 15.4125 9.52
      vertex 4.10751 15.5333 9.52
    endloop
  endfacet
  facet normal -0.195026 0.980798 0
    outer loop
      vertex 3.5 15.4125 9.52
      vertex 4.10751 15.5333 9.5
      vertex 3.5 15.4125 9.5
    endloop
  endfacet
  facet normal 0.831456 0.55559 0
    outer loop
      vertex 2.37747 15.8775 9.52
      vertex 2.03334 16.3925 9.5
      vertex 2.03334 16.3925 9.52
    endloop
  endfacet
  facet normal 0.831456 0.55559 0
    outer loop
      vertex 2.03334 16.3925 9.5
      vertex 2.37747 15.8775 9.52
      vertex 2.37747 15.8775 9.5
    endloop
  endfacet
  facet normal -0.555654 -0.831414 0
    outer loop
      vertex 4.10751 18.4667 9.5
      vertex 4.62253 18.1225 9.52
      vertex 4.10751 18.4667 9.52
    endloop
  endfacet
  facet normal -0.555654 -0.831414 -0
    outer loop
      vertex 4.62253 18.1225 9.52
      vertex 4.10751 18.4667 9.5
      vertex 4.62253 18.1225 9.5
    endloop
  endfacet
  facet normal -0.831456 -0.55559 0
    outer loop
      vertex 4.96666 17.6075 9.5
      vertex 4.62253 18.1225 9.52
      vertex 4.62253 18.1225 9.5
    endloop
  endfacet
  facet normal -0.831456 -0.55559 0
    outer loop
      vertex 4.62253 18.1225 9.52
      vertex 4.96666 17.6075 9.5
      vertex 4.96666 17.6075 9.52
    endloop
  endfacet
  facet normal -0.980785 -0.195091 0
    outer loop
      vertex 5.0875 17 9.5
      vertex 4.96666 17.6075 9.52
      vertex 4.96666 17.6075 9.5
    endloop
  endfacet
  facet normal -0.980785 -0.195091 0
    outer loop
      vertex 4.96666 17.6075 9.52
      vertex 5.0875 17 9.5
      vertex 5.0875 17 9.52
    endloop
  endfacet
  facet normal 0.555654 -0.831414 0
    outer loop
      vertex 2.37747 18.1225 9.5
      vertex 2.89249 18.4667 9.52
      vertex 2.37747 18.1225 9.52
    endloop
  endfacet
  facet normal 0.555654 -0.831414 0
    outer loop
      vertex 2.89249 18.4667 9.52
      vertex 2.37747 18.1225 9.5
      vertex 2.89249 18.4667 9.5
    endloop
  endfacet
  facet normal 0.831456 -0.55559 0
    outer loop
      vertex 2.03334 17.6075 9.52
      vertex 2.37747 18.1225 9.5
      vertex 2.37747 18.1225 9.52
    endloop
  endfacet
  facet normal 0.831456 -0.55559 0
    outer loop
      vertex 2.37747 18.1225 9.5
      vertex 2.03334 17.6075 9.52
      vertex 2.03334 17.6075 9.5
    endloop
  endfacet
  facet normal -0.195026 -0.980798 0
    outer loop
      vertex 3.5 18.5875 9.5
      vertex 4.10751 18.4667 9.52
      vertex 3.5 18.5875 9.52
    endloop
  endfacet
  facet normal -0.195026 -0.980798 -0
    outer loop
      vertex 4.10751 18.4667 9.52
      vertex 3.5 18.5875 9.5
      vertex 4.10751 18.4667 9.5
    endloop
  endfacet
  facet normal 0.195026 -0.980798 0
    outer loop
      vertex 2.89249 18.4667 9.5
      vertex 3.5 18.5875 9.52
      vertex 2.89249 18.4667 9.52
    endloop
  endfacet
  facet normal 0.195026 -0.980798 0
    outer loop
      vertex 3.5 18.5875 9.52
      vertex 2.89249 18.4667 9.5
      vertex 3.5 18.5875 9.5
    endloop
  endfacet
  facet normal -0.980787 0.195084 0
    outer loop
      vertex 7.05415 6.56336 9.52
      vertex 7.141 7 17
      vertex 7.141 7 9.52
    endloop
  endfacet
  facet normal -0.980787 0.195084 0
    outer loop
      vertex 7.141 7 17
      vertex 7.05415 6.56336 9.52
      vertex 7.05415 6.56336 17
    endloop
  endfacet
  facet normal 0.980787 0.195084 0
    outer loop
      vertex 4.94585 6.56336 17
      vertex 4.859 7 9.52
      vertex 4.859 7 17
    endloop
  endfacet
  facet normal 0.980787 0.195084 0
    outer loop
      vertex 4.859 7 9.52
      vertex 4.94585 6.56336 17
      vertex 4.94585 6.56336 9.52
    endloop
  endfacet
  facet normal -0.195084 0.980787 0
    outer loop
      vertex 6.43664 5.94585 9.52
      vertex 6 5.859 17
      vertex 6.43664 5.94585 17
    endloop
  endfacet
  facet normal -0.195084 0.980787 0
    outer loop
      vertex 6 5.859 17
      vertex 6.43664 5.94585 9.52
      vertex 6 5.859 9.52
    endloop
  endfacet
  facet normal -0.831469 0.555571 0
    outer loop
      vertex 6.80681 6.19319 9.52
      vertex 7.05415 6.56336 17
      vertex 7.05415 6.56336 9.52
    endloop
  endfacet
  facet normal -0.831469 0.555571 0
    outer loop
      vertex 7.05415 6.56336 17
      vertex 6.80681 6.19319 9.52
      vertex 6.80681 6.19319 17
    endloop
  endfacet
  facet normal -0.195084 -0.980787 0
    outer loop
      vertex 6 8.141 9.52
      vertex 6.43664 8.05415 17
      vertex 6 8.141 17
    endloop
  endfacet
  facet normal -0.195084 -0.980787 -0
    outer loop
      vertex 6.43664 8.05415 17
      vertex 6 8.141 9.52
      vertex 6.43664 8.05415 9.52
    endloop
  endfacet
  facet normal 0.195084 -0.980787 0
    outer loop
      vertex 5.56336 8.05415 9.52
      vertex 6 8.141 17
      vertex 5.56336 8.05415 17
    endloop
  endfacet
  facet normal 0.195084 -0.980787 0
    outer loop
      vertex 6 8.141 17
      vertex 5.56336 8.05415 9.52
      vertex 6 8.141 9.52
    endloop
  endfacet
  facet normal -0.555571 0.831469 0
    outer loop
      vertex 6.80681 6.19319 9.52
      vertex 6.43664 5.94585 17
      vertex 6.80681 6.19319 17
    endloop
  endfacet
  facet normal -0.555571 0.831469 0
    outer loop
      vertex 6.43664 5.94585 17
      vertex 6.80681 6.19319 9.52
      vertex 6.43664 5.94585 9.52
    endloop
  endfacet
  facet normal 0.195084 0.980787 -0
    outer loop
      vertex 6 5.859 9.52
      vertex 5.56336 5.94585 17
      vertex 6 5.859 17
    endloop
  endfacet
  facet normal 0.195084 0.980787 0
    outer loop
      vertex 5.56336 5.94585 17
      vertex 6 5.859 9.52
      vertex 5.56336 5.94585 9.52
    endloop
  endfacet
  facet normal 0.555571 0.831469 -0
    outer loop
      vertex 5.56336 5.94585 9.52
      vertex 5.19319 6.19319 17
      vertex 5.56336 5.94585 17
    endloop
  endfacet
  facet normal 0.555571 0.831469 0
    outer loop
      vertex 5.19319 6.19319 17
      vertex 5.56336 5.94585 9.52
      vertex 5.19319 6.19319 9.52
    endloop
  endfacet
  facet normal 0.980787 -0.195084 0
    outer loop
      vertex 4.859 7 17
      vertex 4.94585 7.43664 9.52
      vertex 4.94585 7.43664 17
    endloop
  endfacet
  facet normal 0.980787 -0.195084 0
    outer loop
      vertex 4.94585 7.43664 9.52
      vertex 4.859 7 17
      vertex 4.859 7 9.52
    endloop
  endfacet
  facet normal 0.555571 -0.831469 0
    outer loop
      vertex 5.19319 7.80681 9.52
      vertex 5.56336 8.05415 17
      vertex 5.19319 7.80681 17
    endloop
  endfacet
  facet normal 0.555571 -0.831469 0
    outer loop
      vertex 5.56336 8.05415 17
      vertex 5.19319 7.80681 9.52
      vertex 5.56336 8.05415 9.52
    endloop
  endfacet
  facet normal 0.831469 -0.555571 0
    outer loop
      vertex 4.94585 7.43664 17
      vertex 5.19319 7.80681 9.52
      vertex 5.19319 7.80681 17
    endloop
  endfacet
  facet normal 0.831469 -0.555571 0
    outer loop
      vertex 5.19319 7.80681 9.52
      vertex 4.94585 7.43664 17
      vertex 4.94585 7.43664 9.52
    endloop
  endfacet
  facet normal 0.831469 0.555571 0
    outer loop
      vertex 5.19319 6.19319 17
      vertex 4.94585 6.56336 9.52
      vertex 4.94585 6.56336 17
    endloop
  endfacet
  facet normal 0.831469 0.555571 0
    outer loop
      vertex 4.94585 6.56336 9.52
      vertex 5.19319 6.19319 17
      vertex 5.19319 6.19319 9.52
    endloop
  endfacet
  facet normal -0.831469 -0.555571 0
    outer loop
      vertex 7.05415 7.43664 9.52
      vertex 6.80681 7.80681 17
      vertex 6.80681 7.80681 9.52
    endloop
  endfacet
  facet normal -0.831469 -0.555571 0
    outer loop
      vertex 6.80681 7.80681 17
      vertex 7.05415 7.43664 9.52
      vertex 7.05415 7.43664 17
    endloop
  endfacet
  facet normal -0.555571 -0.831469 0
    outer loop
      vertex 6.43664 8.05415 9.52
      vertex 6.80681 7.80681 17
      vertex 6.43664 8.05415 17
    endloop
  endfacet
  facet normal -0.555571 -0.831469 -0
    outer loop
      vertex 6.80681 7.80681 17
      vertex 6.43664 8.05415 9.52
      vertex 6.80681 7.80681 9.52
    endloop
  endfacet
  facet normal -0.980787 -0.195084 0
    outer loop
      vertex 7.141 7 9.52
      vertex 7.05415 7.43664 17
      vertex 7.05415 7.43664 9.52
    endloop
  endfacet
  facet normal -0.980787 -0.195084 0
    outer loop
      vertex 7.05415 7.43664 17
      vertex 7.141 7 9.52
      vertex 7.141 7 17
    endloop
  endfacet
  facet normal -0.980786 0.195088 0
    outer loop
      vertex 7.46666 6.39249 9.5
      vertex 7.5875 7 9.52
      vertex 7.5875 7 9.5
    endloop
  endfacet
  facet normal -0.980786 0.195088 0
    outer loop
      vertex 7.5875 7 9.52
      vertex 7.46666 6.39249 9.5
      vertex 7.46666 6.39249 9.52
    endloop
  endfacet
  facet normal 0.980786 0.195088 0
    outer loop
      vertex 4.53334 6.39249 9.52
      vertex 4.4125 7 9.5
      vertex 4.4125 7 9.52
    endloop
  endfacet
  facet normal 0.980786 0.195088 0
    outer loop
      vertex 4.4125 7 9.5
      vertex 4.53334 6.39249 9.52
      vertex 4.53334 6.39249 9.5
    endloop
  endfacet
  facet normal 0.980786 -0.195088 0
    outer loop
      vertex 4.4125 7 9.52
      vertex 4.53334 7.60751 9.5
      vertex 4.53334 7.60751 9.52
    endloop
  endfacet
  facet normal 0.980786 -0.195088 0
    outer loop
      vertex 4.53334 7.60751 9.5
      vertex 4.4125 7 9.52
      vertex 4.4125 7 9.5
    endloop
  endfacet
  facet normal 0.195088 0.980786 -0
    outer loop
      vertex 6 5.4125 9.5
      vertex 5.39249 5.53334 9.52
      vertex 6 5.4125 9.52
    endloop
  endfacet
  facet normal 0.195088 0.980786 0
    outer loop
      vertex 5.39249 5.53334 9.52
      vertex 6 5.4125 9.5
      vertex 5.39249 5.53334 9.5
    endloop
  endfacet
  facet normal 0.555575 0.831466 -0
    outer loop
      vertex 5.39249 5.53334 9.5
      vertex 4.87747 5.87747 9.52
      vertex 5.39249 5.53334 9.52
    endloop
  endfacet
  facet normal 0.555575 0.831466 0
    outer loop
      vertex 4.87747 5.87747 9.52
      vertex 5.39249 5.53334 9.5
      vertex 4.87747 5.87747 9.5
    endloop
  endfacet
  facet normal 0 0 -1
    outer loop
      vertex 7.141 7 9.52
      vertex 7.5875 7 9.52
      vertex 7.46666 6.39249 9.52
    endloop
  endfacet
  facet normal 0 0 -1
    outer loop
      vertex 7.5875 7 9.52
      vertex 7.141 7 9.52
      vertex 7.46666 7.60751 9.52
    endloop
  endfacet
  facet normal 0 0 -1
    outer loop
      vertex 7.05415 6.56336 9.52
      vertex 7.46666 6.39249 9.52
      vertex 7.12253 5.87747 9.52
    endloop
  endfacet
  facet normal 0 0 -1
    outer loop
      vertex 7.46666 6.39249 9.52
      vertex 7.05415 6.56336 9.52
      vertex 7.141 7 9.52
    endloop
  endfacet
  facet normal 0 0 -1
    outer loop
      vertex 7.12253 5.87747 9.52
      vertex 6.80681 6.19319 9.52
      vertex 7.05415 6.56336 9.52
    endloop
  endfacet
  facet normal 0 0 -1
    outer loop
      vertex 6.60751 5.53334 9.52
      vertex 6.80681 6.19319 9.52
      vertex 7.12253 5.87747 9.52
    endloop
  endfacet
  facet normal 0 0 -1
    outer loop
      vertex 6.60751 5.53334 9.52
      vertex 6.43664 5.94585 9.52
      vertex 6.80681 6.19319 9.52
    endloop
  endfacet
  facet normal 0 0 -1
    outer loop
      vertex 6 5.4125 9.52
      vertex 6.43664 5.94585 9.52
      vertex 6.60751 5.53334 9.52
    endloop
  endfacet
  facet normal 0 0 -1
    outer loop
      vertex 6 5.4125 9.52
      vertex 6 5.859 9.52
      vertex 6.43664 5.94585 9.52
    endloop
  endfacet
  facet normal 0 0 -1
    outer loop
      vertex 6 5.4125 9.52
      vertex 5.56336 5.94585 9.52
      vertex 6 5.859 9.52
    endloop
  endfacet
  facet normal 0 0 -1
    outer loop
      vertex 5.39249 5.53334 9.52
      vertex 5.56336 5.94585 9.52
      vertex 6 5.4125 9.52
    endloop
  endfacet
  facet normal 0 0 -1
    outer loop
      vertex 5.39249 5.53334 9.52
      vertex 5.19319 6.19319 9.52
      vertex 5.56336 5.94585 9.52
    endloop
  endfacet
  facet normal 0 0 -1
    outer loop
      vertex 4.87747 5.87747 9.52
      vertex 5.19319 6.19319 9.52
      vertex 5.39249 5.53334 9.52
    endloop
  endfacet
  facet normal -0 0 -1
    outer loop
      vertex 5.19319 6.19319 9.52
      vertex 4.87747 5.87747 9.52
      vertex 4.94585 6.56336 9.52
    endloop
  endfacet
  facet normal 0 0 -1
    outer loop
      vertex 4.53334 6.39249 9.52
      vertex 4.94585 6.56336 9.52
      vertex 4.87747 5.87747 9.52
    endloop
  endfacet
  facet normal -0 0 -1
    outer loop
      vertex 4.94585 6.56336 9.52
      vertex 4.53334 6.39249 9.52
      vertex 4.859 7 9.52
    endloop
  endfacet
  facet normal 0 0 -1
    outer loop
      vertex 7.05415 7.43664 9.52
      vertex 7.46666 7.60751 9.52
      vertex 7.141 7 9.52
    endloop
  endfacet
  facet normal -0 0 -1
    outer loop
      vertex 7.46666 7.60751 9.52
      vertex 7.05415 7.43664 9.52
      vertex 7.12253 8.12253 9.52
    endloop
  endfacet
  facet normal 0 0 -1
    outer loop
      vertex 6.80681 7.80681 9.52
      vertex 7.12253 8.12253 9.52
      vertex 7.05415 7.43664 9.52
    endloop
  endfacet
  facet normal 0 0 -1
    outer loop
      vertex 6.80681 7.80681 9.52
      vertex 6.60751 8.46666 9.52
      vertex 7.12253 8.12253 9.52
    endloop
  endfacet
  facet normal 0 0 -1
    outer loop
      vertex 6.43664 8.05415 9.52
      vertex 6.60751 8.46666 9.52
      vertex 6.80681 7.80681 9.52
    endloop
  endfacet
  facet normal 0 0 -1
    outer loop
      vertex 6 8.141 9.52
      vertex 6.60751 8.46666 9.52
      vertex 6.43664 8.05415 9.52
    endloop
  endfacet
  facet normal 0 0 -1
    outer loop
      vertex 6 8.141 9.52
      vertex 6 8.5875 9.52
      vertex 6.60751 8.46666 9.52
    endloop
  endfacet
  facet normal 0 0 -1
    outer loop
      vertex 5.56336 8.05415 9.52
      vertex 6 8.5875 9.52
      vertex 6 8.141 9.52
    endloop
  endfacet
  facet normal 0 0 -1
    outer loop
      vertex 5.56336 8.05415 9.52
      vertex 5.39249 8.46666 9.52
      vertex 6 8.5875 9.52
    endloop
  endfacet
  facet normal 0 0 -1
    outer loop
      vertex 5.19319 7.80681 9.52
      vertex 5.39249 8.46666 9.52
      vertex 5.56336 8.05415 9.52
    endloop
  endfacet
  facet normal 0 0 -1
    outer loop
      vertex 4.87747 8.12253 9.52
      vertex 5.19319 7.80681 9.52
      vertex 4.94585 7.43664 9.52
    endloop
  endfacet
  facet normal 0 0 -1
    outer loop
      vertex 5.19319 7.80681 9.52
      vertex 4.87747 8.12253 9.52
      vertex 5.39249 8.46666 9.52
    endloop
  endfacet
  facet normal 0 0 -1
    outer loop
      vertex 4.53334 7.60751 9.52
      vertex 4.94585 7.43664 9.52
      vertex 4.859 7 9.52
    endloop
  endfacet
  facet normal 0 0 -1
    outer loop
      vertex 4.4125 7 9.52
      vertex 4.859 7 9.52
      vertex 4.53334 6.39249 9.52
    endloop
  endfacet
  facet normal 0 0 -1
    outer loop
      vertex 4.94585 7.43664 9.52
      vertex 4.53334 7.60751 9.52
      vertex 4.87747 8.12253 9.52
    endloop
  endfacet
  facet normal 0 0 -1
    outer loop
      vertex 4.859 7 9.52
      vertex 4.4125 7 9.52
      vertex 4.53334 7.60751 9.52
    endloop
  endfacet
  facet normal -0.555575 0.831466 0
    outer loop
      vertex 7.12253 5.87747 9.5
      vertex 6.60751 5.53334 9.52
      vertex 7.12253 5.87747 9.52
    endloop
  endfacet
  facet normal -0.555575 0.831466 0
    outer loop
      vertex 6.60751 5.53334 9.52
      vertex 7.12253 5.87747 9.5
      vertex 6.60751 5.53334 9.5
    endloop
  endfacet
  facet normal -0.831466 0.555575 0
    outer loop
      vertex 7.12253 5.87747 9.5
      vertex 7.46666 6.39249 9.52
      vertex 7.46666 6.39249 9.5
    endloop
  endfacet
  facet normal -0.831466 0.555575 0
    outer loop
      vertex 7.46666 6.39249 9.52
      vertex 7.12253 5.87747 9.5
      vertex 7.12253 5.87747 9.52
    endloop
  endfacet
  facet normal -0.195088 0.980786 0
    outer loop
      vertex 6.60751 5.53334 9.5
      vertex 6 5.4125 9.52
      vertex 6.60751 5.53334 9.52
    endloop
  endfacet
  facet normal -0.195088 0.980786 0
    outer loop
      vertex 6 5.4125 9.52
      vertex 6.60751 5.53334 9.5
      vertex 6 5.4125 9.5
    endloop
  endfacet
  facet normal 0.831466 0.555575 0
    outer loop
      vertex 4.87747 5.87747 9.52
      vertex 4.53334 6.39249 9.5
      vertex 4.53334 6.39249 9.52
    endloop
  endfacet
  facet normal 0.831466 0.555575 0
    outer loop
      vertex 4.53334 6.39249 9.5
      vertex 4.87747 5.87747 9.52
      vertex 4.87747 5.87747 9.5
    endloop
  endfacet
  facet normal -0.555575 -0.831466 0
    outer loop
      vertex 6.60751 8.46666 9.5
      vertex 7.12253 8.12253 9.52
      vertex 6.60751 8.46666 9.52
    endloop
  endfacet
  facet normal -0.555575 -0.831466 -0
    outer loop
      vertex 7.12253 8.12253 9.52
      vertex 6.60751 8.46666 9.5
      vertex 7.12253 8.12253 9.5
    endloop
  endfacet
  facet normal -0.831466 -0.555575 0
    outer loop
      vertex 7.46666 7.60751 9.5
      vertex 7.12253 8.12253 9.52
      vertex 7.12253 8.12253 9.5
    endloop
  endfacet
  facet normal -0.831466 -0.555575 0
    outer loop
      vertex 7.12253 8.12253 9.52
      vertex 7.46666 7.60751 9.5
      vertex 7.46666 7.60751 9.52
    endloop
  endfacet
  facet normal -0.980786 -0.195088 0
    outer loop
      vertex 7.5875 7 9.5
      vertex 7.46666 7.60751 9.52
      vertex 7.46666 7.60751 9.5
    endloop
  endfacet
  facet normal -0.980786 -0.195088 0
    outer loop
      vertex 7.46666 7.60751 9.52
      vertex 7.5875 7 9.5
      vertex 7.5875 7 9.52
    endloop
  endfacet
  facet normal 0.555575 -0.831466 0
    outer loop
      vertex 4.87747 8.12253 9.5
      vertex 5.39249 8.46666 9.52
      vertex 4.87747 8.12253 9.52
    endloop
  endfacet
  facet normal 0.555575 -0.831466 0
    outer loop
      vertex 5.39249 8.46666 9.52
      vertex 4.87747 8.12253 9.5
      vertex 5.39249 8.46666 9.5
    endloop
  endfacet
  facet normal 0.831466 -0.555575 0
    outer loop
      vertex 4.53334 7.60751 9.52
      vertex 4.87747 8.12253 9.5
      vertex 4.87747 8.12253 9.52
    endloop
  endfacet
  facet normal 0.831466 -0.555575 0
    outer loop
      vertex 4.87747 8.12253 9.5
      vertex 4.53334 7.60751 9.52
      vertex 4.53334 7.60751 9.5
    endloop
  endfacet
  facet normal -0.195088 -0.980786 0
    outer loop
      vertex 6 8.5875 9.5
      vertex 6.60751 8.46666 9.52
      vertex 6 8.5875 9.52
    endloop
  endfacet
  facet normal -0.195088 -0.980786 -0
    outer loop
      vertex 6.60751 8.46666 9.52
      vertex 6 8.5875 9.5
      vertex 6.60751 8.46666 9.5
    endloop
  endfacet
  facet normal 0.195088 -0.980786 0
    outer loop
      vertex 5.39249 8.46666 9.5
      vertex 6 8.5875 9.52
      vertex 5.39249 8.46666 9.52
    endloop
  endfacet
  facet normal 0.195088 -0.980786 0
    outer loop
      vertex 6 8.5875 9.52
      vertex 5.39249 8.46666 9.5
      vertex 6 8.5875 9.5
    endloop
  endfacet
  facet normal 0 0 1
    outer loop
      vertex 20 22 17
      vertex 17.141 13 17
      vertex 20 3.18198 17
    endloop
  endfacet
  facet normal 0 0 1
    outer loop
      vertex 20 22 17
      vertex 17.0541 13.4366 17
      vertex 17.141 13 17
    endloop
  endfacet
  facet normal 0 0 1
    outer loop
      vertex 20 22 17
      vertex 16.8068 13.8068 17
      vertex 17.0541 13.4366 17
    endloop
  endfacet
  facet normal 0 0 1
    outer loop
      vertex 20 22 17
      vertex 16.4366 14.0541 17
      vertex 16.8068 13.8068 17
    endloop
  endfacet
  facet normal 0 0 1
    outer loop
      vertex 20 22 17
      vertex 16 14.141 17
      vertex 16.4366 14.0541 17
    endloop
  endfacet
  facet normal 0 0 1
    outer loop
      vertex 20 22 17
      vertex 15.5634 14.0541 17
      vertex 16 14.141 17
    endloop
  endfacet
  facet normal -0 0 1
    outer loop
      vertex 4.55415 17.4366 17
      vertex 15.5634 14.0541 17
      vertex 20 22 17
    endloop
  endfacet
  facet normal 0 0 1
    outer loop
      vertex 15.5634 14.0541 17
      vertex 4.55415 17.4366 17
      vertex 15.1932 13.8068 17
    endloop
  endfacet
  facet normal 0 0 1
    outer loop
      vertex 4.55415 16.5634 17
      vertex 14.859 13 17
      vertex 14.9459 13.4366 17
    endloop
  endfacet
  facet normal -0 -0 1
    outer loop
      vertex 4.641 17 17
      vertex 15.1932 13.8068 17
      vertex 4.55415 17.4366 17
    endloop
  endfacet
  facet normal 0 0 1
    outer loop
      vertex 14.859 13 17
      vertex 7.05415 7.43664 17
      vertex 7.141 7 17
    endloop
  endfacet
  facet normal 0 0 1
    outer loop
      vertex 14.859 13 17
      vertex 6.80681 7.80681 17
      vertex 7.05415 7.43664 17
    endloop
  endfacet
  facet normal 0 0 1
    outer loop
      vertex 14.859 13 17
      vertex 4.55415 16.5634 17
      vertex 4.30681 16.1932 17
    endloop
  endfacet
  facet normal 0 0 1
    outer loop
      vertex 14.859 13 17
      vertex 6.43664 8.05415 17
      vertex 6.80681 7.80681 17
    endloop
  endfacet
  facet normal 0 0 1
    outer loop
      vertex 14.859 13 17
      vertex 4.30681 16.1932 17
      vertex 6.43664 8.05415 17
    endloop
  endfacet
  facet normal 0 0 1
    outer loop
      vertex 6.43664 8.05415 17
      vertex 4.30681 16.1932 17
      vertex 6 8.141 17
    endloop
  endfacet
  facet normal 0 0 1
    outer loop
      vertex 6 8.141 17
      vertex 3.93664 15.9459 17
      vertex 5.56336 8.05415 17
    endloop
  endfacet
  facet normal -0 0 1
    outer loop
      vertex 3.93664 15.9459 17
      vertex 6 8.141 17
      vertex 4.30681 16.1932 17
    endloop
  endfacet
  facet normal 0 0 1
    outer loop
      vertex 14.9459 13.4366 17
      vertex 4.641 17 17
      vertex 4.55415 16.5634 17
    endloop
  endfacet
  facet normal 0 0 1
    outer loop
      vertex 15.1932 13.8068 17
      vertex 4.641 17 17
      vertex 14.9459 13.4366 17
    endloop
  endfacet
  facet normal 0 0 1
    outer loop
      vertex 20 22 17
      vertex 4.30681 17.8068 17
      vertex 4.55415 17.4366 17
    endloop
  endfacet
  facet normal -0 0 1
    outer loop
      vertex 0.799999 22 17
      vertex 4.30681 17.8068 17
      vertex 20 22 17
    endloop
  endfacet
  facet normal 0 0 1
    outer loop
      vertex 4.30681 17.8068 17
      vertex 0.799999 22 17
      vertex 3.93664 18.0541 17
    endloop
  endfacet
  facet normal 0 0 1
    outer loop
      vertex 3.93664 18.0541 17
      vertex 0.799999 22 17
      vertex 3.5 18.141 17
    endloop
  endfacet
  facet normal 0 0 1
    outer loop
      vertex 2.69319 17.8068 17
      vertex 0.799999 17.6 17
      vertex 2.44585 17.4366 17
    endloop
  endfacet
  facet normal 0 0 1
    outer loop
      vertex 0.799999 17.6 17
      vertex 2.69319 17.8068 17
      vertex 0.799999 22 17
    endloop
  endfacet
  facet normal 0 0 1
    outer loop
      vertex 3.06336 18.0541 17
      vertex 0.799999 22 17
      vertex 2.69319 17.8068 17
    endloop
  endfacet
  facet normal 0 0 1
    outer loop
      vertex 3.5 18.141 17
      vertex 0.799999 22 17
      vertex 3.06336 18.0541 17
    endloop
  endfacet
  facet normal -0 0 1
    outer loop
      vertex 17.0541 12.5634 17
      vertex 20 3.18198 17
      vertex 17.141 13 17
    endloop
  endfacet
  facet normal -0 0 1
    outer loop
      vertex 16.8068 12.1932 17
      vertex 20 3.18198 17
      vertex 17.0541 12.5634 17
    endloop
  endfacet
  facet normal -0 0 1
    outer loop
      vertex 16.4366 11.9459 17
      vertex 20 3.18198 17
      vertex 16.8068 12.1932 17
    endloop
  endfacet
  facet normal -0 0 1
    outer loop
      vertex 16 11.859 17
      vertex 20 3.18198 17
      vertex 16.4366 11.9459 17
    endloop
  endfacet
  facet normal 0 0 1
    outer loop
      vertex 15.5634 11.9459 17
      vertex 20 3.18198 17
      vertex 16 11.859 17
    endloop
  endfacet
  facet normal 0 0 1
    outer loop
      vertex 20 3.18198 17
      vertex 15.5634 11.9459 17
      vertex 16.818 0 17
    endloop
  endfacet
  facet normal 0 0 1
    outer loop
      vertex 7.141 7 17
      vertex 15.5634 11.9459 17
      vertex 15.1932 12.1932 17
    endloop
  endfacet
  facet normal 0 0 1
    outer loop
      vertex 7.141 7 17
      vertex 15.1932 12.1932 17
      vertex 14.9459 12.5634 17
    endloop
  endfacet
  facet normal 0 0 1
    outer loop
      vertex 7.141 7 17
      vertex 14.9459 12.5634 17
      vertex 14.859 13 17
    endloop
  endfacet
  facet normal 0 0 1
    outer loop
      vertex 15.5634 11.9459 17
      vertex 7.141 7 17
      vertex 16.818 0 17
    endloop
  endfacet
  facet normal -0 0 1
    outer loop
      vertex 7.05415 6.56336 17
      vertex 16.818 0 17
      vertex 7.141 7 17
    endloop
  endfacet
  facet normal -0 0 1
    outer loop
      vertex 6.80681 6.19319 17
      vertex 16.818 0 17
      vertex 7.05415 6.56336 17
    endloop
  endfacet
  facet normal 0 0 1
    outer loop
      vertex 4.57451 0 17
      vertex 6.80681 6.19319 17
      vertex 6.43664 5.94585 17
    endloop
  endfacet
  facet normal 0 0 1
    outer loop
      vertex 4.57451 0 17
      vertex 6.43664 5.94585 17
      vertex 6 5.859 17
    endloop
  endfacet
  facet normal 0 0 1
    outer loop
      vertex 4.57451 0 17
      vertex 6 5.859 17
      vertex 5.56336 5.94585 17
    endloop
  endfacet
  facet normal 0 0 1
    outer loop
      vertex 6.80681 6.19319 17
      vertex 4.57451 0 17
      vertex 16.818 0 17
    endloop
  endfacet
  facet normal 0 0 1
    outer loop
      vertex 5.19319 6.19319 17
      vertex 4.57451 0 17
      vertex 5.56336 5.94585 17
    endloop
  endfacet
  facet normal 0 0 1
    outer loop
      vertex 4.94585 6.56336 17
      vertex 4.57451 0 17
      vertex 5.19319 6.19319 17
    endloop
  endfacet
  facet normal 0 0 1
    outer loop
      vertex 4.859 7 17
      vertex 4.57451 0 17
      vertex 4.94585 6.56336 17
    endloop
  endfacet
  facet normal -0 0 1
    outer loop
      vertex 3.5 15.859 17
      vertex 5.56336 8.05415 17
      vertex 3.93664 15.9459 17
    endloop
  endfacet
  facet normal 0 0 1
    outer loop
      vertex 5.56336 8.05415 17
      vertex 3.5 15.859 17
      vertex 5.19319 7.80681 17
    endloop
  endfacet
  facet normal 0 0 1
    outer loop
      vertex 3.06336 15.9459 17
      vertex 5.19319 7.80681 17
      vertex 3.5 15.859 17
    endloop
  endfacet
  facet normal 0 0 1
    outer loop
      vertex 5.19319 7.80681 17
      vertex 3.06336 15.9459 17
      vertex 4.94585 7.43664 17
    endloop
  endfacet
  facet normal 0 0 1
    outer loop
      vertex 2.69319 16.1932 17
      vertex 4.94585 7.43664 17
      vertex 3.06336 15.9459 17
    endloop
  endfacet
  facet normal 0 0 1
    outer loop
      vertex 0.0883268 17.6 17
      vertex 4.94585 7.43664 17
      vertex 2.69319 16.1932 17
    endloop
  endfacet
  facet normal 0 0 1
    outer loop
      vertex 4.94585 7.43664 17
      vertex 0.0883268 17.6 17
      vertex 4.859 7 17
    endloop
  endfacet
  facet normal 0 0 1
    outer loop
      vertex 0.0883268 17.6 17
      vertex 2.69319 16.1932 17
      vertex 2.44585 16.5634 17
    endloop
  endfacet
  facet normal 0 0 1
    outer loop
      vertex 0.799999 17.6 17
      vertex 2.44585 16.5634 17
      vertex 2.359 17 17
    endloop
  endfacet
  facet normal 0 0 1
    outer loop
      vertex 2.44585 17.4366 17
      vertex 0.799999 17.6 17
      vertex 2.359 17 17
    endloop
  endfacet
  facet normal 0 0 1
    outer loop
      vertex 2.44585 16.5634 17
      vertex 0.799999 17.6 17
      vertex 0.0883268 17.6 17
    endloop
  endfacet
  facet normal 0 0 1
    outer loop
      vertex 4.859 7 17
      vertex 0.0883268 17.6 17
      vertex 4.57451 0 17
    endloop
  endfacet
  facet normal 1 -0 0
    outer loop
      vertex 20 3.18198 17
      vertex 20 22 9.5
      vertex 20 22 17
    endloop
  endfacet
  facet normal 1 0 0
    outer loop
      vertex 20 22 9.5
      vertex 20 3.18198 17
      vertex 20 3.18198 9.5
    endloop
  endfacet
  facet normal 0 1 0
    outer loop
      vertex 20 22 17
      vertex 7.91779 22 12.25
      vertex 0.799999 22 17
    endloop
  endfacet
  facet normal 0 1 0
    outer loop
      vertex 20 22 17
      vertex 8.24953 22 12.1861
      vertex 7.91779 22 12.25
    endloop
  endfacet
  facet normal 0 1 0
    outer loop
      vertex 20 22 17
      vertex 9.00382 22 12.0407
      vertex 8.24953 22 12.1861
    endloop
  endfacet
  facet normal 0 1 0
    outer loop
      vertex 20 22 17
      vertex 9.63539 22 11.6317
      vertex 9.00382 22 12.0407
    endloop
  endfacet
  facet normal 0 1 0
    outer loop
      vertex 20 22 17
      vertex 9.92451 22 11.4445
      vertex 9.63539 22 11.6317
    endloop
  endfacet
  facet normal 0 1 0
    outer loop
      vertex 20 22 17
      vertex 10.1195 22 11.1617
      vertex 9.92451 22 11.4445
    endloop
  endfacet
  facet normal 0 1 0
    outer loop
      vertex 20 22 17
      vertex 10.5397 22 10.5524
      vertex 10.1195 22 11.1617
    endloop
  endfacet
  facet normal 0 1 -0
    outer loop
      vertex 20 22 9.5
      vertex 10.5397 22 10.5524
      vertex 20 22 17
    endloop
  endfacet
  facet normal 0 1 0
    outer loop
      vertex 10.5397 22 10.5524
      vertex 20 22 9.5
      vertex 10.7557 22 9.5
    endloop
  endfacet
  facet normal 0 1 -0
    outer loop
      vertex 7.15617 22 12.1032
      vertex 0.799999 22 17
      vertex 7.91779 22 12.25
    endloop
  endfacet
  facet normal 0 1 -0
    outer loop
      vertex 6.83176 22 12.0407
      vertex 0.799999 22 17
      vertex 7.15617 22 12.1032
    endloop
  endfacet
  facet normal 0 1 -0
    outer loop
      vertex 6.56012 22 11.8648
      vertex 0.799999 22 17
      vertex 6.83176 22 12.0407
    endloop
  endfacet
  facet normal 0 1 -0
    outer loop
      vertex 5.91107 22 11.4445
      vertex 0.799999 22 17
      vertex 6.56012 22 11.8648
    endloop
  endfacet
  facet normal 0 1 -0
    outer loop
      vertex 5.47325 22 10.8096
      vertex 0.799999 22 17
      vertex 5.91107 22 11.4445
    endloop
  endfacet
  facet normal 0 1 0
    outer loop
      vertex 0.799999 22 9.5
      vertex 5.47325 22 10.8096
      vertex 5.29588 22 10.5524
    endloop
  endfacet
  facet normal 0 1 0
    outer loop
      vertex 0.799999 22 9.5
      vertex 5.29588 22 10.5524
      vertex 5.23391 22 10.2505
    endloop
  endfacet
  facet normal 0 1 0
    outer loop
      vertex 0.799999 22 9.5
      vertex 5.23391 22 10.2505
      vertex 5.07985 22 9.5
    endloop
  endfacet
  facet normal 0 1 0
    outer loop
      vertex 5.47325 22 10.8096
      vertex 0.799999 22 9.5
      vertex 0.799999 22 17
    endloop
  endfacet
  facet normal 0 -1 0
    outer loop
      vertex 12.4395 0 12.0407
      vertex 16.818 0 17
      vertex 4.57451 0 17
    endloop
  endfacet
  facet normal 0 -1 0
    outer loop
      vertex 16.818 0 17
      vertex 13.3845 0 12.2228
      vertex 13.5255 0 12.25
    endloop
  endfacet
  facet normal 0 -1 0
    outer loop
      vertex 16.818 0 17
      vertex 12.4395 0 12.0407
      vertex 13.3845 0 12.2228
    endloop
  endfacet
  facet normal 0 -1 0
    outer loop
      vertex 4.57451 0 17
      vertex 11.6482 0 11.5284
      vertex 12.4395 0 12.0407
    endloop
  endfacet
  facet normal 0 -1 0
    outer loop
      vertex 4.57451 0 17
      vertex 11.5188 0 11.4445
      vertex 11.6482 0 11.5284
    endloop
  endfacet
  facet normal 0 -1 0
    outer loop
      vertex 4.57451 0 17
      vertex 11.4315 0 11.3179
      vertex 11.5188 0 11.4445
    endloop
  endfacet
  facet normal 0 -1 0
    outer loop
      vertex 4.57451 0 17
      vertex 10.9036 0 10.5524
      vertex 11.4315 0 11.3179
    endloop
  endfacet
  facet normal 0 -1 0
    outer loop
      vertex 4.57451 0 9.5
      vertex 10.9036 0 10.5524
      vertex 4.57451 0 17
    endloop
  endfacet
  facet normal 0 -1 0
    outer loop
      vertex 10.9036 0 10.5524
      vertex 4.57451 0 9.5
      vertex 10.7192 0 9.65399
    endloop
  endfacet
  facet normal 0 -1 0
    outer loop
      vertex 10.7192 0 9.65399
      vertex 4.57451 0 9.5
      vertex 10.6876 0 9.5
    endloop
  endfacet
  facet normal 0 -1 0
    outer loop
      vertex 14.4778 0 12.0664
      vertex 16.818 0 17
      vertex 13.5255 0 12.25
    endloop
  endfacet
  facet normal 0 -1 0
    outer loop
      vertex 14.6115 0 12.0407
      vertex 16.818 0 17
      vertex 14.4778 0 12.0664
    endloop
  endfacet
  facet normal 0 -1 0
    outer loop
      vertex 14.7235 0 11.9682
      vertex 16.818 0 17
      vertex 14.6115 0 12.0407
    endloop
  endfacet
  facet normal 0 -1 0
    outer loop
      vertex 15.5322 0 11.4445
      vertex 16.818 0 17
      vertex 14.7235 0 11.9682
    endloop
  endfacet
  facet normal 0 -1 0
    outer loop
      vertex 16.0778 0 10.6534
      vertex 16.818 0 17
      vertex 15.5322 0 11.4445
    endloop
  endfacet
  facet normal 0 -1 0
    outer loop
      vertex 16.1474 0 10.5524
      vertex 16.818 0 17
      vertex 16.0778 0 10.6534
    endloop
  endfacet
  facet normal 0 -1 0
    outer loop
      vertex 16.818 0 9.5
      vertex 16.1474 0 10.5524
      vertex 16.3634 0 9.5
    endloop
  endfacet
  facet normal 0 -1 0
    outer loop
      vertex 16.1474 0 10.5524
      vertex 16.818 0 9.5
      vertex 16.818 0 17
    endloop
  endfacet
  facet normal -0.969016 -0.246999 0
    outer loop
      vertex 4.57451 0 9.5
      vertex 0.0883268 17.6 17
      vertex 0.0883268 17.6 9.5
    endloop
  endfacet
  facet normal -0.969016 -0.246999 0
    outer loop
      vertex 0.0883268 17.6 17
      vertex 4.57451 0 9.5
      vertex 4.57451 0 17
    endloop
  endfacet
  facet normal 0.950396 0.242253 -0.195094
    outer loop
      vertex 10.7192 0 9.65399
      vertex 5.07985 22 9.5
      vertex 5.23391 22 10.2505
    endloop
  endfacet
  facet normal 0.950408 0.242257 -0.195031
    outer loop
      vertex 5.07985 22 9.5
      vertex 10.7192 0 9.65399
      vertex 10.6876 0 9.5
    endloop
  endfacet
  facet normal -0.538418 -0.13724 -0.831427
    outer loop
      vertex 14.7235 0 11.9682
      vertex 9.92451 22 11.4445
      vertex 15.5322 0 11.4445
    endloop
  endfacet
  facet normal -0.53836 -0.137228 -0.831467
    outer loop
      vertex 9.92451 22 11.4445
      vertex 14.7235 0 11.9682
      vertex 9.63539 22 11.6317
    endloop
  endfacet
  facet normal -0.18909 -0.0481957 -0.980776
    outer loop
      vertex 13.5255 0 12.25
      vertex 8.24953 22 12.1861
      vertex 14.4778 0 12.0664
    endloop
  endfacet
  facet normal -0.188924 -0.048156 -0.98081
    outer loop
      vertex 8.24953 22 12.1861
      vertex 13.5255 0 12.25
      vertex 7.91779 22 12.25
    endloop
  endfacet
  facet normal 0.805696 0.205369 -0.555587
    outer loop
      vertex 11.4315 0 11.3179
      vertex 5.91107 22 11.4445
      vertex 11.5188 0 11.4445
    endloop
  endfacet
  facet normal 0.805691 0.205368 -0.555595
    outer loop
      vertex 5.91107 22 11.4445
      vertex 11.4315 0 11.3179
      vertex 5.47325 22 10.8096
    endloop
  endfacet
  facet normal -0.805864 -0.205411 -0.555328
    outer loop
      vertex 16.0778 0 10.6534
      vertex 10.5397 22 10.5524
      vertex 16.1474 0 10.5524
    endloop
  endfacet
  facet normal -0.805671 -0.205364 -0.555626
    outer loop
      vertex 10.5397 22 10.5524
      vertex 16.0778 0 10.6534
      vertex 10.1195 22 11.1617
    endloop
  endfacet
  facet normal -0.950401 -0.242253 -0.195065
    outer loop
      vertex 16.3634 0 9.5
      vertex 10.5397 22 10.5524
      vertex 10.7557 22 9.5
    endloop
  endfacet
  facet normal -0.950401 -0.242253 -0.195065
    outer loop
      vertex 10.5397 22 10.5524
      vertex 16.3634 0 9.5
      vertex 16.1474 0 10.5524
    endloop
  endfacet
  facet normal 0.805682 0.205365 -0.55561
    outer loop
      vertex 10.9036 0 10.5524
      vertex 5.47325 22 10.8096
      vertex 11.4315 0 11.3179
    endloop
  endfacet
  facet normal 0.80568 0.205365 -0.555612
    outer loop
      vertex 5.47325 22 10.8096
      vertex 10.9036 0 10.5524
      vertex 5.29588 22 10.5524
    endloop
  endfacet
  facet normal 0.950398 0.242253 -0.195085
    outer loop
      vertex 10.9036 0 10.5524
      vertex 5.23391 22 10.2505
      vertex 5.29588 22 10.5524
    endloop
  endfacet
  facet normal 0.9504 0.242254 -0.195071
    outer loop
      vertex 5.23391 22 10.2505
      vertex 10.9036 0 10.5524
      vertex 10.7192 0 9.65399
    endloop
  endfacet
  facet normal 0.538876 0.137338 -0.831115
    outer loop
      vertex 11.5188 0 11.4445
      vertex 6.56012 22 11.8648
      vertex 11.6482 0 11.5284
    endloop
  endfacet
  facet normal 0.538406 0.137238 -0.831435
    outer loop
      vertex 6.56012 22 11.8648
      vertex 11.5188 0 11.4445
      vertex 5.91107 22 11.4445
    endloop
  endfacet
  facet normal 0.188998 0.0481744 -0.980795
    outer loop
      vertex 12.4395 0 12.0407
      vertex 7.15617 22 12.1032
      vertex 13.3845 0 12.2228
    endloop
  endfacet
  facet normal 0.188959 0.0481651 -0.980803
    outer loop
      vertex 7.15617 22 12.1032
      vertex 12.4395 0 12.0407
      vertex 6.83176 22 12.0407
    endloop
  endfacet
  facet normal -0.805661 -0.205361 -0.555642
    outer loop
      vertex 15.5322 0 11.4445
      vertex 10.1195 22 11.1617
      vertex 16.0778 0 10.6534
    endloop
  endfacet
  facet normal -0.805724 -0.205375 -0.555545
    outer loop
      vertex 10.1195 22 11.1617
      vertex 15.5322 0 11.4445
      vertex 9.92451 22 11.4445
    endloop
  endfacet
  facet normal 0.538322 0.137217 -0.831493
    outer loop
      vertex 11.6482 0 11.5284
      vertex 6.83176 22 12.0407
      vertex 12.4395 0 12.0407
    endloop
  endfacet
  facet normal 0.538398 0.137232 -0.831441
    outer loop
      vertex 6.83176 22 12.0407
      vertex 11.6482 0 11.5284
      vertex 6.56012 22 11.8648
    endloop
  endfacet
  facet normal -0.188548 -0.0480597 -0.980887
    outer loop
      vertex 14.4778 0 12.0664
      vertex 9.00382 22 12.0407
      vertex 14.6115 0 12.0407
    endloop
  endfacet
  facet normal -0.18906 -0.048187 -0.980783
    outer loop
      vertex 9.00382 22 12.0407
      vertex 14.4778 0 12.0664
      vertex 8.24953 22 12.1861
    endloop
  endfacet
  facet normal -0.538267 -0.137208 -0.83153
    outer loop
      vertex 14.6115 0 12.0407
      vertex 9.63539 22 11.6317
      vertex 14.7235 0 11.9682
    endloop
  endfacet
  facet normal -0.538424 -0.137241 -0.831423
    outer loop
      vertex 9.63539 22 11.6317
      vertex 14.6115 0 12.0407
      vertex 9.00382 22 12.0407
    endloop
  endfacet
  facet normal 0.189195 0.0482251 -0.980755
    outer loop
      vertex 13.3845 0 12.2228
      vertex 7.91779 22 12.25
      vertex 13.5255 0 12.25
    endloop
  endfacet
  facet normal 0.189044 0.0481874 -0.980786
    outer loop
      vertex 7.91779 22 12.25
      vertex 13.3845 0 12.2228
      vertex 7.15617 22 12.1032
    endloop
  endfacet
  facet normal -1 0 0
    outer loop
      vertex 0.799999 17.6 9.5
      vertex 0.799999 22 17
      vertex 0.799999 22 9.5
    endloop
  endfacet
  facet normal -1 -0 0
    outer loop
      vertex 0.799999 22 17
      vertex 0.799999 17.6 9.5
      vertex 0.799999 17.6 17
    endloop
  endfacet
  facet normal 0 1 -0
    outer loop
      vertex 0.799999 17.6 9.5
      vertex 0.0883268 17.6 17
      vertex 0.799999 17.6 17
    endloop
  endfacet
  facet normal 0 1 0
    outer loop
      vertex 0.0883268 17.6 17
      vertex 0.799999 17.6 9.5
      vertex 0.0883268 17.6 9.5
    endloop
  endfacet
  facet normal 0.707105 -0.707109 0
    outer loop
      vertex 16.818 0 17
      vertex 20 3.18198 9.5
      vertex 20 3.18198 17
    endloop
  endfacet
  facet normal 0.707105 -0.707109 0
    outer loop
      vertex 20 3.18198 9.5
      vertex 16.818 0 17
      vertex 16.818 0 9.5
    endloop
  endfacet
  facet normal 0 0 -1
    outer loop
      vertex 7.12253 8.12253 9.5
      vertex 4.96666 16.3925 9.5
      vertex 5.0875 17 9.5
    endloop
  endfacet
  facet normal 0 0 -1
    outer loop
      vertex 3.5 15.4125 9.5
      vertex 5.39249 8.46666 9.5
      vertex 4.87747 8.12253 9.5
    endloop
  endfacet
  facet normal 0 0 -1
    outer loop
      vertex 6 8.5875 9.5
      vertex 4.62253 15.8775 9.5
      vertex 4.96666 16.3925 9.5
    endloop
  endfacet
  facet normal 0 0 -1
    outer loop
      vertex 2.89249 15.5333 9.5
      vertex 4.87747 8.12253 9.5
      vertex 4.53334 7.60751 9.5
    endloop
  endfacet
  facet normal 0 0 -1
    outer loop
      vertex 0.0883268 17.6 9.5
      vertex 4.53334 7.60751 9.5
      vertex 4.4125 7 9.5
    endloop
  endfacet
  facet normal 0 0 -1
    outer loop
      vertex 6 8.5875 9.5
      vertex 4.10751 15.5333 9.5
      vertex 4.62253 15.8775 9.5
    endloop
  endfacet
  facet normal 0 0 -1
    outer loop
      vertex 10.6876 0 9.5
      vertex 7.46666 6.39249 9.5
      vertex 7.5875 7 9.5
    endloop
  endfacet
  facet normal 0 0 -1
    outer loop
      vertex 10.6876 0 9.5
      vertex 7.12253 5.87747 9.5
      vertex 7.46666 6.39249 9.5
    endloop
  endfacet
  facet normal 0 0 -1
    outer loop
      vertex 10.6876 0 9.5
      vertex 6.60751 5.53334 9.5
      vertex 7.12253 5.87747 9.5
    endloop
  endfacet
  facet normal 0 0 -1
    outer loop
      vertex 4.57451 0 9.5
      vertex 6.60751 5.53334 9.5
      vertex 10.6876 0 9.5
    endloop
  endfacet
  facet normal 0 0 -1
    outer loop
      vertex 6.60751 5.53334 9.5
      vertex 4.57451 0 9.5
      vertex 6 5.4125 9.5
    endloop
  endfacet
  facet normal -0 0 -1
    outer loop
      vertex 6 5.4125 9.5
      vertex 4.57451 0 9.5
      vertex 5.39249 5.53334 9.5
    endloop
  endfacet
  facet normal -0 0 -1
    outer loop
      vertex 5.39249 5.53334 9.5
      vertex 4.57451 0 9.5
      vertex 4.87747 5.87747 9.5
    endloop
  endfacet
  facet normal 0 0 -1
    outer loop
      vertex 4.57451 0 9.5
      vertex 4.53334 6.39249 9.5
      vertex 4.87747 5.87747 9.5
    endloop
  endfacet
  facet normal 0 0 -1
    outer loop
      vertex 4.57451 0 9.5
      vertex 4.4125 7 9.5
      vertex 4.53334 6.39249 9.5
    endloop
  endfacet
  facet normal 0 0 -1
    outer loop
      vertex 0.0883268 17.6 9.5
      vertex 4.4125 7 9.5
      vertex 4.57451 0 9.5
    endloop
  endfacet
  facet normal 0 0 -1
    outer loop
      vertex 5.39249 8.46666 9.5
      vertex 3.5 15.4125 9.5
      vertex 4.10751 15.5333 9.5
    endloop
  endfacet
  facet normal 0 0 -1
    outer loop
      vertex 4.87747 8.12253 9.5
      vertex 2.89249 15.5333 9.5
      vertex 3.5 15.4125 9.5
    endloop
  endfacet
  facet normal 0 0 -1
    outer loop
      vertex 4.53334 7.60751 9.5
      vertex 2.37747 15.8775 9.5
      vertex 2.89249 15.5333 9.5
    endloop
  endfacet
  facet normal 0 0 -1
    outer loop
      vertex 4.53334 7.60751 9.5
      vertex 0.0883268 17.6 9.5
      vertex 2.37747 15.8775 9.5
    endloop
  endfacet
  facet normal 0 0 -1
    outer loop
      vertex 2.37747 15.8775 9.5
      vertex 0.0883268 17.6 9.5
      vertex 2.03334 16.3925 9.5
    endloop
  endfacet
  facet normal -0 -0 -1
    outer loop
      vertex 0.799999 17.6 9.5
      vertex 2.03334 16.3925 9.5
      vertex 0.0883268 17.6 9.5
    endloop
  endfacet
  facet normal 0 0 -1
    outer loop
      vertex 2.03334 16.3925 9.5
      vertex 0.799999 17.6 9.5
      vertex 1.9125 17 9.5
    endloop
  endfacet
  facet normal 0 0 -1
    outer loop
      vertex 7.46666 7.60751 9.5
      vertex 10.6876 0 9.5
      vertex 7.5875 7 9.5
    endloop
  endfacet
  facet normal 0 0 -1
    outer loop
      vertex 4.10751 15.5333 9.5
      vertex 6 8.5875 9.5
      vertex 5.39249 8.46666 9.5
    endloop
  endfacet
  facet normal 0 0 -1
    outer loop
      vertex 4.96666 16.3925 9.5
      vertex 6.60751 8.46666 9.5
      vertex 6 8.5875 9.5
    endloop
  endfacet
  facet normal 0 0 -1
    outer loop
      vertex 4.96666 16.3925 9.5
      vertex 7.12253 8.12253 9.5
      vertex 6.60751 8.46666 9.5
    endloop
  endfacet
  facet normal 0 0 -1
    outer loop
      vertex 5.0875 17 9.5
      vertex 7.46666 7.60751 9.5
      vertex 7.12253 8.12253 9.5
    endloop
  endfacet
  facet normal 0 0 -1
    outer loop
      vertex 5.07985 22 9.5
      vertex 7.46666 7.60751 9.5
      vertex 5.0875 17 9.5
    endloop
  endfacet
  facet normal 0 0 -1
    outer loop
      vertex 7.46666 7.60751 9.5
      vertex 5.07985 22 9.5
      vertex 10.6876 0 9.5
    endloop
  endfacet
  facet normal 0 0 -1
    outer loop
      vertex 4.96666 17.6075 9.5
      vertex 5.07985 22 9.5
      vertex 5.0875 17 9.5
    endloop
  endfacet
  facet normal 0 0 -1
    outer loop
      vertex 4.62253 18.1225 9.5
      vertex 5.07985 22 9.5
      vertex 4.96666 17.6075 9.5
    endloop
  endfacet
  facet normal 0 0 -1
    outer loop
      vertex 4.10751 18.4667 9.5
      vertex 5.07985 22 9.5
      vertex 4.62253 18.1225 9.5
    endloop
  endfacet
  facet normal 0 0 -1
    outer loop
      vertex 3.5 18.5875 9.5
      vertex 5.07985 22 9.5
      vertex 4.10751 18.4667 9.5
    endloop
  endfacet
  facet normal 0 0 -1
    outer loop
      vertex 0.799999 22 9.5
      vertex 3.5 18.5875 9.5
      vertex 2.89249 18.4667 9.5
    endloop
  endfacet
  facet normal 0 0 -1
    outer loop
      vertex 0.799999 22 9.5
      vertex 2.89249 18.4667 9.5
      vertex 2.37747 18.1225 9.5
    endloop
  endfacet
  facet normal 0 0 -1
    outer loop
      vertex 0.799999 17.6 9.5
      vertex 2.03334 17.6075 9.5
      vertex 1.9125 17 9.5
    endloop
  endfacet
  facet normal 0 0 -1
    outer loop
      vertex 0.799999 17.6 9.5
      vertex 2.37747 18.1225 9.5
      vertex 2.03334 17.6075 9.5
    endloop
  endfacet
  facet normal 0 0 -1
    outer loop
      vertex 0.799999 22 9.5
      vertex 2.37747 18.1225 9.5
      vertex 0.799999 17.6 9.5
    endloop
  endfacet
  facet normal 0 0 -1
    outer loop
      vertex 3.5 18.5875 9.5
      vertex 0.799999 22 9.5
      vertex 5.07985 22 9.5
    endloop
  endfacet
  facet normal 0 0 -1
    outer loop
      vertex 20 3.18198 9.5
      vertex 17.5875 13 9.5
      vertex 20 22 9.5
    endloop
  endfacet
  facet normal 0 0 -1
    outer loop
      vertex 20 3.18198 9.5
      vertex 17.4667 12.3925 9.5
      vertex 17.5875 13 9.5
    endloop
  endfacet
  facet normal 0 0 -1
    outer loop
      vertex 20 3.18198 9.5
      vertex 17.1225 11.8775 9.5
      vertex 17.4667 12.3925 9.5
    endloop
  endfacet
  facet normal 0 0 -1
    outer loop
      vertex 16.3634 0 9.5
      vertex 20 3.18198 9.5
      vertex 16.818 0 9.5
    endloop
  endfacet
  facet normal 0 0 -1
    outer loop
      vertex 20 3.18198 9.5
      vertex 16.6075 11.5333 9.5
      vertex 17.1225 11.8775 9.5
    endloop
  endfacet
  facet normal -0 0 -1
    outer loop
      vertex 20 3.18198 9.5
      vertex 16.3634 0 9.5
      vertex 16 11.4125 9.5
    endloop
  endfacet
  facet normal 0 0 -1
    outer loop
      vertex 20 3.18198 9.5
      vertex 16 11.4125 9.5
      vertex 16.6075 11.5333 9.5
    endloop
  endfacet
  facet normal 0 0 -1
    outer loop
      vertex 16.3634 0 9.5
      vertex 15.3925 11.5333 9.5
      vertex 16 11.4125 9.5
    endloop
  endfacet
  facet normal 0 0 -1
    outer loop
      vertex 16.3634 0 9.5
      vertex 14.8775 11.8775 9.5
      vertex 15.3925 11.5333 9.5
    endloop
  endfacet
  facet normal 0 0 -1
    outer loop
      vertex 16.3634 0 9.5
      vertex 14.5333 12.3925 9.5
      vertex 14.8775 11.8775 9.5
    endloop
  endfacet
  facet normal 0 0 -1
    outer loop
      vertex 10.7557 22 9.5
      vertex 14.5333 12.3925 9.5
      vertex 16.3634 0 9.5
    endloop
  endfacet
  facet normal 0 0 -1
    outer loop
      vertex 14.5333 12.3925 9.5
      vertex 10.7557 22 9.5
      vertex 14.4125 13 9.5
    endloop
  endfacet
  facet normal 0 0 -1
    outer loop
      vertex 17.4667 13.6075 9.5
      vertex 20 22 9.5
      vertex 17.5875 13 9.5
    endloop
  endfacet
  facet normal 0 0 -1
    outer loop
      vertex 17.1225 14.1225 9.5
      vertex 20 22 9.5
      vertex 17.4667 13.6075 9.5
    endloop
  endfacet
  facet normal 0 0 -1
    outer loop
      vertex 16.6075 14.4667 9.5
      vertex 20 22 9.5
      vertex 17.1225 14.1225 9.5
    endloop
  endfacet
  facet normal 0 0 -1
    outer loop
      vertex 16 14.5875 9.5
      vertex 20 22 9.5
      vertex 16.6075 14.4667 9.5
    endloop
  endfacet
  facet normal 0 0 -1
    outer loop
      vertex 10.7557 22 9.5
      vertex 16 14.5875 9.5
      vertex 15.3925 14.4667 9.5
    endloop
  endfacet
  facet normal 0 0 -1
    outer loop
      vertex 10.7557 22 9.5
      vertex 15.3925 14.4667 9.5
      vertex 14.8775 14.1225 9.5
    endloop
  endfacet
  facet normal 0 0 -1
    outer loop
      vertex 10.7557 22 9.5
      vertex 14.8775 14.1225 9.5
      vertex 14.5333 13.6075 9.5
    endloop
  endfacet
  facet normal 0 0 -1
    outer loop
      vertex 16 14.5875 9.5
      vertex 10.7557 22 9.5
      vertex 20 22 9.5
    endloop
  endfacet
  facet normal 0 0 -1
    outer loop
      vertex 10.7557 22 9.5
      vertex 14.5333 13.6075 9.5
      vertex 14.4125 13 9.5
    endloop
  endfacet
endsolid OpenSCAD_Model
