solid OpenSCAD_Model
  facet normal -1 0 0
    outer loop
      vertex 0 0 6.4
      vertex 0 4 6.4
      vertex 0 4 1
    endloop
  endfacet
  facet normal -1 0 0
    outer loop
      vertex 0 0 6.4
      vertex 0 4 1
      vertex 0 0 1
    endloop
  endfacet
  facet normal -1 0 0
    outer loop
      vertex 0 4 6.4
      vertex 0 0 6.4
      vertex 0 2 8.4
    endloop
  endfacet
  facet normal 1 0 0
    outer loop
      vertex 11.7 0 6.4
      vertex 11.7 4 6.4
      vertex 11.7 2 8.4
    endloop
  endfacet
  facet normal 1 0 0
    outer loop
      vertex 11.7 4 6.4
      vertex 11.7 0 6.4
      vertex 11.7 4 0
    endloop
  endfacet
  facet normal 1 0 0
    outer loop
      vertex 11.7 4 0
      vertex 11.7 0 6.4
      vertex 11.7 0 0
    endloop
  endfacet
  facet normal 0 1 0
    outer loop
      vertex 11.7 4 6.4
      vertex 2 4 1
      vertex 0 4 6.4
    endloop
  endfacet
  facet normal 0 1 -0
    outer loop
      vertex 11.7 4 0
      vertex 2 4 1
      vertex 11.7 4 6.4
    endloop
  endfacet
  facet normal 0 1 0
    outer loop
      vertex 2 4 1
      vertex 11.7 4 0
      vertex 2 4 0
    endloop
  endfacet
  facet normal 0 1 0
    outer loop
      vertex 0 4 6.4
      vertex 2 4 1
      vertex 0 4 1
    endloop
  endfacet
  facet normal 0 0 -1
    outer loop
      vertex -0.5 -5.85 0
      vertex 2 0 0
      vertex 2 -5.85 0
    endloop
  endfacet
  facet normal -0 0 -1
    outer loop
      vertex 2 0 0
      vertex -0.5 -5.85 0
      vertex 2 4 0
    endloop
  endfacet
  facet normal 0 0 -1
    outer loop
      vertex -0.5 9.85 0
      vertex 2 4 0
      vertex -0.5 -5.85 0
    endloop
  endfacet
  facet normal 0 0 -1
    outer loop
      vertex 2 4 0
      vertex -0.5 9.85 0
      vertex 2 9.85 0
    endloop
  endfacet
  facet normal 0 0 -1
    outer loop
      vertex 2 0 0
      vertex 11.7 4 0
      vertex 11.7 0 0
    endloop
  endfacet
  facet normal -0 0 -1
    outer loop
      vertex 11.7 4 0
      vertex 2 0 0
      vertex 2 4 0
    endloop
  endfacet
  facet normal 0 -1 0
    outer loop
      vertex 2 0 1
      vertex 0 0 6.4
      vertex 0 0 1
    endloop
  endfacet
  facet normal 0 -1 0
    outer loop
      vertex 0 0 6.4
      vertex 2 0 1
      vertex 11.7 0 6.4
    endloop
  endfacet
  facet normal 0 -1 0
    outer loop
      vertex 11.7 0 0
      vertex 2 0 1
      vertex 2 0 0
    endloop
  endfacet
  facet normal 0 -1 0
    outer loop
      vertex 2 0 1
      vertex 11.7 0 0
      vertex 11.7 0 6.4
    endloop
  endfacet
  facet normal 0 -0.707107 0.707107
    outer loop
      vertex 0 0 6.4
      vertex 11.7 2 8.4
      vertex 0 2 8.4
    endloop
  endfacet
  facet normal 0 -0.707107 0.707107
    outer loop
      vertex 11.7 2 8.4
      vertex 0 0 6.4
      vertex 11.7 0 6.4
    endloop
  endfacet
  facet normal 0 0.707107 0.707107
    outer loop
      vertex 11.7 4 6.4
      vertex 0 2 8.4
      vertex 11.7 2 8.4
    endloop
  endfacet
  facet normal 0 0.707107 0.707107
    outer loop
      vertex 0 2 8.4
      vertex 11.7 4 6.4
      vertex 0 4 6.4
    endloop
  endfacet
  facet normal -1 0 0
    outer loop
      vertex -0.5 -5.85 0
      vertex -0.5 9.85 1
      vertex -0.5 9.85 0
    endloop
  endfacet
  facet normal -1 -0 0
    outer loop
      vertex -0.5 9.85 1
      vertex -0.5 -5.85 0
      vertex -0.5 -5.85 1
    endloop
  endfacet
  facet normal 0 0 1
    outer loop
      vertex 2 9.85 1
      vertex 0 4 1
      vertex 2 4 1
    endloop
  endfacet
  facet normal 0 0 1
    outer loop
      vertex 0 4 1
      vertex -0.5 9.85 1
      vertex 0 0 1
    endloop
  endfacet
  facet normal -0 0 1
    outer loop
      vertex -0.5 9.85 1
      vertex 0 4 1
      vertex 2 9.85 1
    endloop
  endfacet
  facet normal -0 0 1
    outer loop
      vertex 0 0 1
      vertex 2 -5.85 1
      vertex 2 0 1
    endloop
  endfacet
  facet normal 0 0 1
    outer loop
      vertex 0 0 1
      vertex -0.5 -5.85 1
      vertex 2 -5.85 1
    endloop
  endfacet
  facet normal 0 0 1
    outer loop
      vertex -0.5 -5.85 1
      vertex 0 0 1
      vertex -0.5 9.85 1
    endloop
  endfacet
  facet normal 1 -0 0
    outer loop
      vertex 2 -5.85 1
      vertex 2 0 0
      vertex 2 0 1
    endloop
  endfacet
  facet normal 1 0 0
    outer loop
      vertex 2 0 0
      vertex 2 -5.85 1
      vertex 2 -5.85 0
    endloop
  endfacet
  facet normal 1 -0 0
    outer loop
      vertex 2 4 1
      vertex 2 9.85 0
      vertex 2 9.85 1
    endloop
  endfacet
  facet normal 1 0 0
    outer loop
      vertex 2 9.85 0
      vertex 2 4 1
      vertex 2 4 0
    endloop
  endfacet
  facet normal 0 1 -0
    outer loop
      vertex 2 9.85 0
      vertex -0.5 9.85 1
      vertex 2 9.85 1
    endloop
  endfacet
  facet normal 0 1 0
    outer loop
      vertex -0.5 9.85 1
      vertex 2 9.85 0
      vertex -0.5 9.85 0
    endloop
  endfacet
  facet normal 0 -1 0
    outer loop
      vertex -0.5 -5.85 0
      vertex 2 -5.85 1
      vertex -0.5 -5.85 1
    endloop
  endfacet
  facet normal 0 -1 -0
    outer loop
      vertex 2 -5.85 1
      vertex -0.5 -5.85 0
      vertex 2 -5.85 0
    endloop
  endfacet
endsolid OpenSCAD_Model
